<svg width="20" height="20" viewBox="0 0 20 20" fill="none" xmlns="http://www.w3.org/2000/svg">
<path d="M19.6429 18.5714H18.5714V3.92857C18.5714 3.73143 18.4107 3.57143 18.2143 3.57143H14.7057V0.357143C14.7057 0.16 14.5457 0 14.3486 0H5.65143C5.45429 0 5.29429 0.16 5.29429 0.357143V3.57143H1.78571C1.58857 3.57143 1.42857 3.73143 1.42857 3.92857V18.5714H0.357143C0.16 18.5714 0 18.7321 0 18.9286V19.6429C0 19.8393 0.16 20 0.357143 20H19.6429C19.8393 20 20 19.8393 20 19.6429V18.9286C20 18.7321 19.8393 18.5714 19.6429 18.5714ZM10 0.714286C11.1829 0.714286 12.1429 1.67357 12.1429 2.85714C12.1429 4.04071 11.1829 5 10 5C8.81714 5 7.85714 4.04071 7.85714 2.85714C7.85714 1.67357 8.81714 0.714286 10 0.714286ZM7.17643 6.23571H9.295V8.35286H7.17643V6.23571ZM5.765 15.4121H3.64643V13.295H5.765V15.4121ZM5.765 11.8821H3.64643V9.765H5.765V11.8821ZM5.765 8.35286H3.64643V6.23571H5.765V8.35286ZM7.17643 9.765H9.295V11.8821H7.17643V9.765ZM11.765 18.5714H8.23571V15.4121H11.765V18.5714ZM12.8236 11.8821H10.7043V9.765H12.8236V11.8821ZM12.8236 8.35286H10.7043V6.23571H12.8236V8.35286ZM16.3536 15.4121H14.2357V13.295H16.3536V15.4121ZM16.3536 11.8821H14.2357V9.765H16.3536V11.8821ZM16.3536 8.35286H14.2357V6.23571H16.3536V8.35286Z" fill="#DDD9D3"/>
<path d="M9.58035 4.28601H10.4203V3.27743H11.4289V2.43744H10.4203V1.42886H9.58035V2.43744H8.57178V3.27743H9.58035V4.28601Z" fill="#DDD9D3"/>
</svg>
