<?xml version="1.0" encoding="UTF-8" standalone="no"?>
<svg
   xmlns:dc="http://purl.org/dc/elements/1.1/"
   xmlns:cc="http://creativecommons.org/ns#"
   xmlns:rdf="http://www.w3.org/1999/02/22-rdf-syntax-ns#"
   xmlns:svg="http://www.w3.org/2000/svg"
   xmlns="http://www.w3.org/2000/svg"
   xmlns:sodipodi="http://sodipodi.sourceforge.net/DTD/sodipodi-0.dtd"
   xmlns:inkscape="http://www.inkscape.org/namespaces/inkscape"
   sodipodi:docname="build-m.svg"
   inkscape:version="1.0 (4035a4fb49, 2020-05-01)"
   id="svg8"
   version="1.1"
   viewBox="0 0 10.054166 10.054167"
   height="38"
   width="38">
  <defs
     id="defs2" />
  <sodipodi:namedview
     inkscape:window-maximized="1"
     inkscape:window-y="-8"
     inkscape:window-x="1432"
     inkscape:window-height="1017"
     inkscape:window-width="1920"
     fit-margin-bottom="0"
     fit-margin-right="0"
     fit-margin-left="0"
     fit-margin-top="0"
     units="px"
     showgrid="false"
     inkscape:document-rotation="0"
     inkscape:current-layer="layer1"
     inkscape:document-units="mm"
     inkscape:cy="28.878956"
     inkscape:cx="8.2394936"
     inkscape:zoom="3.959798"
     inkscape:pageshadow="2"
     inkscape:pageopacity="0.0"
     borderopacity="1.0"
     bordercolor="#666666"
     pagecolor="#ffffff"
     id="base" />
  <metadata
     id="metadata5">
    <rdf:RDF>
      <cc:Work
         rdf:about="">
        <dc:format>image/svg+xml</dc:format>
        <dc:type
           rdf:resource="http://purl.org/dc/dcmitype/StillImage" />
        <dc:title></dc:title>
      </cc:Work>
    </rdf:RDF>
  </metadata>
  <g
     id="layer1"
     inkscape:groupmode="layer"
     inkscape:label="Layer 1">
    <rect
       y="0.06681738"
       x="0"
       height="9.9557896"
       width="10.22306"
       id="rect28"
       style="fill:#eb8271;fill-rule:evenodd;stroke-width:0.264583;fill-opacity:1" />
    <g
       transform="matrix(0.26458333,0,0,0.26458333,2.6512055,2.3839358)"
       id="g24"
       style="fill:none">
      <path
         d="M 19.6429,18.5714 H 18.5714 V 3.92857 c 0,-0.19714 -0.1607,-0.35714 -0.3571,-0.35714 H 14.7057 V 0.357143 C 14.7057,0.16 14.5457,0 14.3486,0 H 5.65143 C 5.45429,0 5.29429,0.16 5.29429,0.357143 V 3.57143 H 1.78571 c -0.19714,0 -0.35714,0.16 -0.35714,0.35714 V 18.5714 H 0.357143 C 0.16,18.5714 0,18.7321 0,18.9286 v 0.7143 C 0,19.8393 0.16,20 0.357143,20 H 19.6429 C 19.8393,20 20,19.8393 20,19.6429 v -0.7143 c 0,-0.1965 -0.1607,-0.3572 -0.3571,-0.3572 z M 10,0.714286 c 1.1829,0 2.1429,0.959284 2.1429,2.142854 C 12.1429,4.04071 11.1829,5 10,5 8.81714,5 7.85714,4.04071 7.85714,2.85714 7.85714,1.67357 8.81714,0.714286 10,0.714286 Z M 7.17643,6.23571 H 9.295 V 8.35286 H 7.17643 Z M 5.765,15.4121 H 3.64643 V 13.295 H 5.765 Z m 0,-3.53 H 3.64643 V 9.765 H 5.765 Z m 0,-3.52924 H 3.64643 V 6.23571 H 5.765 Z M 7.17643,9.765 H 9.295 v 2.1171 H 7.17643 Z M 11.765,18.5714 H 8.23571 V 15.4121 H 11.765 Z m 1.0586,-6.6893 H 10.7043 V 9.765 h 2.1193 z m 0,-3.52924 H 10.7043 V 6.23571 h 2.1193 z m 3.53,7.05924 H 14.2357 V 13.295 h 2.1179 z m 0,-3.53 H 14.2357 V 9.765 h 2.1179 z m 0,-3.52924 H 14.2357 V 6.23571 h 2.1179 z"
         fill="#ddd9d3"
         id="path10" />
      <path
         d="M 9.58035,4.28601 H 10.4203 V 3.27743 h 1.0086 V 2.43744 H 10.4203 V 1.42886 H 9.58035 V 2.43744 H 8.57178 v 0.83999 h 1.00857 z"
         fill="#ddd9d3"
         id="path12" />
      <path
         style="fill:#ffffff;fill-opacity:1"
         id="path853"
         fill="#ddd9d3"
         d="M 19.6429,18.5714 H 18.5714 V 3.92857 c 0,-0.19714 -0.1607,-0.35714 -0.3571,-0.35714 H 14.7057 V 0.357143 C 14.7057,0.16 14.5457,0 14.3486,0 H 5.65143 C 5.45429,0 5.29429,0.16 5.29429,0.357143 V 3.57143 H 1.78571 c -0.19714,0 -0.35714,0.16 -0.35714,0.35714 V 18.5714 H 0.357143 C 0.16,18.5714 0,18.7321 0,18.9286 v 0.7143 C 0,19.8393 0.16,20 0.357143,20 H 19.6429 C 19.8393,20 20,19.8393 20,19.6429 v -0.7143 c 0,-0.1965 -0.1607,-0.3572 -0.3571,-0.3572 z M 10,0.714286 c 1.1829,0 2.1429,0.959284 2.1429,2.142854 C 12.1429,4.04071 11.1829,5 10,5 8.81714,5 7.85714,4.04071 7.85714,2.85714 7.85714,1.67357 8.81714,0.714286 10,0.714286 Z M 7.17643,6.23571 H 9.295 V 8.35286 H 7.17643 Z M 5.765,15.4121 H 3.64643 V 13.295 H 5.765 Z m 0,-3.53 H 3.64643 V 9.765 H 5.765 Z m 0,-3.52924 H 3.64643 V 6.23571 H 5.765 Z M 7.17643,9.765 H 9.295 v 2.1171 H 7.17643 Z M 11.765,18.5714 H 8.23571 V 15.4121 H 11.765 Z m 1.0586,-6.6893 H 10.7043 V 9.765 h 2.1193 z m 0,-3.52924 H 10.7043 V 6.23571 h 2.1193 z m 3.53,7.05924 H 14.2357 V 13.295 h 2.1179 z m 0,-3.53 H 14.2357 V 9.765 h 2.1179 z m 0,-3.52924 H 14.2357 V 6.23571 h 2.1179 z" />
    </g>
  </g>
</svg>
