<?xml version="1.0" encoding="UTF-8" standalone="no"?>
<svg
   xmlns:dc="http://purl.org/dc/elements/1.1/"
   xmlns:cc="http://creativecommons.org/ns#"
   xmlns:rdf="http://www.w3.org/1999/02/22-rdf-syntax-ns#"
   xmlns:svg="http://www.w3.org/2000/svg"
   xmlns="http://www.w3.org/2000/svg"
   xmlns:sodipodi="http://sodipodi.sourceforge.net/DTD/sodipodi-0.dtd"
   xmlns:inkscape="http://www.inkscape.org/namespaces/inkscape"
   sodipodi:docname="gym-m.svg"
   inkscape:version="1.0 (4035a4fb49, 2020-05-01)"
   id="svg8"
   version="1.1"
   viewBox="0 0 10.054166 10.054167"
   height="38"
   width="38">
  <defs
     id="defs2" />
  <sodipodi:namedview
     inkscape:window-maximized="1"
     inkscape:window-y="-8"
     inkscape:window-x="1432"
     inkscape:window-height="1017"
     inkscape:window-width="1920"
     fit-margin-bottom="0"
     fit-margin-right="0"
     fit-margin-left="0"
     fit-margin-top="0"
     units="px"
     showgrid="false"
     inkscape:document-rotation="0"
     inkscape:current-layer="layer1"
     inkscape:document-units="mm"
     inkscape:cy="28.878956"
     inkscape:cx="17.330866"
     inkscape:zoom="3.959798"
     inkscape:pageshadow="2"
     inkscape:pageopacity="0.0"
     borderopacity="1.0"
     bordercolor="#666666"
     pagecolor="#ffffff"
     id="base" />
  <metadata
     id="metadata5">
    <rdf:RDF>
      <cc:Work
         rdf:about="">
        <dc:format>image/svg+xml</dc:format>
        <dc:type
           rdf:resource="http://purl.org/dc/dcmitype/StillImage" />
        <dc:title></dc:title>
      </cc:Work>
    </rdf:RDF>
  </metadata>
  <g
     id="layer1"
     inkscape:groupmode="layer"
     inkscape:label="Layer 1">
    <rect
       y="0.06681738"
       x="0"
       height="9.9557896"
       width="10.22306"
       id="rect28"
       style="fill:#eb8271;fill-rule:evenodd;stroke-width:0.264583;fill-opacity:1" />
    <g
       transform="matrix(0.26458333,0,0,0.26458333,2.4127305,2.4527678)"
       id="g884"
       style="fill:#ffffff;fill-opacity:1">
      <path
         style="fill:#ffffff;fill-opacity:1"
         d="m 0.283151,13.2356 5.235099,5.2351 c 0.37466,0.3747 0.98271,0.3776 1.36092,0.0084 L 0.274815,11.8747 c -0.3692467,0.3784 -0.3663293,0.9863 0.008336,1.3609 z"
         fill="#ddd9d3"
         id="path855" />
      <path
         style="fill:#ffffff;fill-opacity:1"
         d="M 11.7447,5.39464 5.39551,11.7439 7.0107,13.3591 13.3599,7.00983 Z"
         fill="#ddd9d3"
         id="path857" />
      <path
         style="fill:#ffffff;fill-opacity:1"
         d="M 0.692025,9.61397 0.640763,9.66523 c -0.487814,0.48777 -0.487814,1.28157 0,1.76937 l 0.168579,0.1686 H 0.807883 l 6.343677,6.3436 v -0.0012 l 0.16857,0.1686 c 0.48782,0.4878 1.28133,0.4878 1.76935,-3e-4 l 0.05126,-0.0512 c 0.48781,-0.4878 0.48781,-1.2815 2.1e-4,-1.7694 L 2.46158,9.61397 c -0.48803,-0.48782 -1.28153,-0.48782 -1.769555,0 z"
         fill="#ddd9d3"
         id="path859" />
      <path
         style="fill:#ffffff;fill-opacity:1"
         d="M 9.66615,0.639756 9.61488,0.691017 c -0.48781,0.487813 -0.48781,1.281533 0,1.769343 l 6.67962,6.67958 c 0.4878,0.48782 1.2813,0.48782 1.7693,-2.1e-4 l 0.0513,-0.05126 c 0.4878,-0.48781 0.4878,-1.28153 2e-4,-1.76934 L 11.4357,0.639756 c -0.488,-0.487814 -1.2815,-0.487814 -1.76955,0 z"
         fill="#ddd9d3"
         id="path861" />
      <path
         style="fill:#ffffff;fill-opacity:1"
         d="M 11.8735,0.276442 18.4789,6.87975 C 18.8488,6.50155 18.8463,5.89308 18.4712,5.51821 L 13.2361,0.28311 C 12.8608,-0.0921804 12.2515,-0.0944726 11.8735,0.276442 Z"
         fill="#ddd9d3"
         id="path863" />
      <path
         style="fill:#ffffff;fill-opacity:1"
         d="m 1.70854,17.0455 c 0.34611,0.3461 0.8408,0.4872 1.32341,0.3776 L 3.43329,17.3316 1.42243,15.3208 1.33095,15.7221 c -0.10981,0.4826 0.03147,0.9773 0.37759,1.3234 z"
         fill="#ddd9d3"
         id="path865" />
      <path
         style="fill:#ffffff;fill-opacity:1"
         d="m 15.7212,1.33129 -0.4014,0.09148 2.0109,2.01085 0.0915,-0.40134 C 17.532,2.54968 17.3907,2.05499 17.0446,1.70887 16.6985,1.36275 16.2038,1.22147 15.7212,1.33129 Z"
         fill="#ddd9d3"
         id="path867" />
    </g>
  </g>
</svg>
