<svg width="19" height="19" viewBox="0 0 19 19" fill="none" xmlns="http://www.w3.org/2000/svg">
<path d="M0.283151 13.2356L5.51825 18.4707C5.89291 18.8454 6.50096 18.8483 6.87917 18.4791L0.274815 11.8747C-0.0944317 12.2531 -0.0915143 12.861 0.283151 13.2356Z" fill="#DDD9D3"/>
<path d="M11.7447 5.39464L5.39551 11.7439L7.0107 13.3591L13.3599 7.00983L11.7447 5.39464Z" fill="#DDD9D3"/>
<path d="M0.692025 9.61397L0.640763 9.66523C0.152949 10.153 0.152949 10.9468 0.640763 11.4346L0.809342 11.6032H0.807883L7.15156 17.9468V17.9456L7.32013 18.1142C7.80795 18.602 8.60146 18.602 9.08948 18.1139L9.14074 18.0627C9.62855 17.5749 9.62855 16.7812 9.14095 16.2933L2.46158 9.61397C1.97355 9.12615 1.18005 9.12615 0.692025 9.61397Z" fill="#DDD9D3"/>
<path d="M9.66615 0.639756L9.61488 0.691017C9.12707 1.17883 9.12707 1.97255 9.61488 2.46036L16.2945 9.13994C16.7823 9.62776 17.5758 9.62776 18.0638 9.13973L18.1151 9.08847C18.6029 8.60066 18.6029 7.80694 18.1153 7.31913L11.4357 0.639756C10.9477 0.151942 10.1542 0.151942 9.66615 0.639756Z" fill="#DDD9D3"/>
<path d="M11.8735 0.276442L18.4789 6.87975C18.8488 6.50155 18.8463 5.89308 18.4712 5.51821L13.2361 0.28311C12.8608 -0.0921804 12.2515 -0.0944726 11.8735 0.276442Z" fill="#DDD9D3"/>
<path d="M1.70854 17.0455C2.05465 17.3916 2.54934 17.5327 3.03195 17.4231L3.43329 17.3316L1.42243 15.3208L1.33095 15.7221C1.22114 16.2047 1.36242 16.6994 1.70854 17.0455Z" fill="#DDD9D3"/>
<path d="M15.7212 1.33129L15.3198 1.42277L17.3307 3.43362L17.4222 3.03228C17.532 2.54968 17.3907 2.05499 17.0446 1.70887C16.6985 1.36275 16.2038 1.22147 15.7212 1.33129Z" fill="#DDD9D3"/>
</svg>
