<svg width="20" height="13" viewBox="0 0 20 13" fill="none" xmlns="http://www.w3.org/2000/svg">
<path d="M0.822839 0.872245C0.667737 1.14367 0.570801 1.45388 0.570801 1.78347V10.3722C0.570801 10.7018 0.667737 11.012 0.822839 11.2641L6.01874 6.06815L0.822839 0.872245Z" fill="#DDD9D3"/>
<path d="M11.9514 8.22013C11.4474 8.72421 10.7688 8.99563 10.0708 8.99563C9.35349 8.99563 8.67492 8.72421 8.19023 8.22013L6.67799 6.70789L1.50146 11.8844C1.75351 12.0201 2.02493 12.0977 2.33513 12.0977H17.8453C18.1361 12.0977 18.4269 12.0201 18.679 11.8844L13.5025 6.70789L11.9514 8.22013Z" fill="#DDD9D3"/>
<path d="M19.319 0.872245L14.123 6.06815L19.319 11.2641C19.4741 11.012 19.571 10.7018 19.571 10.3722V1.78347C19.571 1.43449 19.4741 1.12429 19.319 0.872245Z" fill="#DDD9D3"/>
<path d="M8.82967 7.56121C9.15926 7.8908 9.62457 8.06528 10.0705 8.06528C10.5164 8.06528 10.9623 7.8908 11.3113 7.56121L18.6592 0.21326C18.4072 0.0775461 18.1358 0 17.845 0H2.33478C2.04397 0 1.75316 0.0775461 1.52051 0.21326L8.82967 7.56121Z" fill="#DDD9D3"/>
</svg>
