<?xml version="1.0" encoding="UTF-8" standalone="no"?>
<svg
   xmlns:dc="http://purl.org/dc/elements/1.1/"
   xmlns:cc="http://creativecommons.org/ns#"
   xmlns:rdf="http://www.w3.org/1999/02/22-rdf-syntax-ns#"
   xmlns:svg="http://www.w3.org/2000/svg"
   xmlns="http://www.w3.org/2000/svg"
   xmlns:sodipodi="http://sodipodi.sourceforge.net/DTD/sodipodi-0.dtd"
   xmlns:inkscape="http://www.inkscape.org/namespaces/inkscape"
   sodipodi:docname="letter-m.svg"
   inkscape:version="1.0 (4035a4fb49, 2020-05-01)"
   id="svg8"
   version="1.1"
   viewBox="0 0 10.054166 10.054167"
   height="38"
   width="38">
  <defs
     id="defs2" />
  <sodipodi:namedview
     inkscape:window-maximized="1"
     inkscape:window-y="-8"
     inkscape:window-x="1432"
     inkscape:window-height="1017"
     inkscape:window-width="1920"
     fit-margin-bottom="0"
     fit-margin-right="0"
     fit-margin-left="0"
     fit-margin-top="0"
     units="px"
     showgrid="false"
     inkscape:document-rotation="0"
     inkscape:current-layer="layer1"
     inkscape:document-units="mm"
     inkscape:cy="28.878956"
     inkscape:cx="17.330866"
     inkscape:zoom="3.959798"
     inkscape:pageshadow="2"
     inkscape:pageopacity="0.0"
     borderopacity="1.0"
     bordercolor="#666666"
     pagecolor="#ffffff"
     id="base" />
  <metadata
     id="metadata5">
    <rdf:RDF>
      <cc:Work
         rdf:about="">
        <dc:format>image/svg+xml</dc:format>
        <dc:type
           rdf:resource="http://purl.org/dc/dcmitype/StillImage" />
        <dc:title></dc:title>
      </cc:Work>
    </rdf:RDF>
  </metadata>
  <g
     id="layer1"
     inkscape:groupmode="layer"
     inkscape:label="Layer 1">
    <rect
       y="0.06681738"
       x="0"
       height="9.9557896"
       width="10.22306"
       id="rect28"
       style="fill:#eb8271;fill-rule:evenodd;stroke-width:0.264583;fill-opacity:1" />
    <g
       transform="matrix(0.26458333,0,0,0.26458333,2.3467117,3.4108788)"
       id="g906"
       style="fill:#ffffff;fill-opacity:1">
      <path
         style="fill:#ffffff;fill-opacity:1"
         d="M 0.822839,0.872245 C 0.667737,1.14367 0.570801,1.45388 0.570801,1.78347 v 8.58873 c 0,0.3296 0.096936,0.6398 0.252038,0.8919 L 6.01874,6.06815 Z"
         fill="#ddd9d3"
         id="path886" />
      <path
         style="fill:#ffffff;fill-opacity:1"
         d="m 11.9514,8.22013 c -0.504,0.50408 -1.1826,0.7755 -1.8806,0.7755 -0.71731,0 -1.39588,-0.27142 -1.88057,-0.7755 L 6.67799,6.70789 1.50146,11.8844 c 0.25205,0.1357 0.52347,0.2133 0.83367,0.2133 H 17.8453 c 0.2908,0 0.5816,-0.0776 0.8337,-0.2133 L 13.5025,6.70789 Z"
         fill="#ddd9d3"
         id="path888" />
      <path
         style="fill:#ffffff;fill-opacity:1"
         d="m 19.319,0.872245 -5.196,5.195905 5.196,5.19595 c 0.1551,-0.2521 0.252,-0.5623 0.252,-0.8919 V 1.78347 c 0,-0.34898 -0.0969,-0.65918 -0.252,-0.911225 z"
         fill="#ddd9d3"
         id="path890" />
      <path
         style="fill:#ffffff;fill-opacity:1"
         d="m 8.82967,7.56121 c 0.32959,0.32959 0.7949,0.50407 1.24083,0.50407 0.4459,0 0.8918,-0.17448 1.2408,-0.50407 L 18.6592,0.21326 C 18.4072,0.0775461 18.1358,0 17.845,0 H 2.33478 C 2.04397,0 1.75316,0.0775461 1.52051,0.21326 Z"
         fill="#ddd9d3"
         id="path892" />
    </g>
  </g>
</svg>
