<svg width="20" height="21" viewBox="0 0 20 21" fill="none" xmlns="http://www.w3.org/2000/svg">
<path d="M7.49994 0.0435954C7.63724 -0.0696338 7.86337 0.0539316 7.84817 0.228239C7.85767 0.88976 7.85577 1.55128 7.84722 2.2128C8.01397 2.38758 8.18309 2.55954 8.34984 2.73384C8.42823 2.82875 8.55602 2.84566 8.66719 2.88278C9.08715 3.004 9.49951 3.1534 9.92328 3.26193C10.3641 3.12991 10.8055 2.99601 11.2421 2.84989C11.5081 2.64364 11.7323 2.38617 11.9827 2.16065C11.9761 1.55034 11.9784 0.939562 11.9799 0.329252C11.9856 0.240924 11.9675 0.133803 12.0416 0.0670869C12.1533 -0.0630561 12.4022 0.0121168 12.4126 0.185954C12.4278 0.905264 12.4041 1.62645 12.4236 2.34576C12.6868 2.85788 13.0193 3.33194 13.32 3.82291C13.493 4.08696 13.6778 4.34301 13.8569 4.60283C13.702 4.9256 13.6074 5.27187 13.4673 5.60075C13.3514 5.86197 13.2844 6.14152 13.1694 6.40322C12.9699 6.87258 12.8521 7.37201 12.6298 7.83197C12.5286 8.11716 12.4183 8.39812 12.2996 8.67626C13.626 9.30959 14.7329 10.3066 15.7106 11.3806C16.9063 12.7126 17.9154 14.1982 18.8128 15.7392C19.2385 16.474 19.638 17.2244 20 17.9921C18.6831 18.8401 17.2474 19.5007 15.7657 20.0123C13.6673 20.7293 11.435 21.1056 9.21257 20.9741C6.84149 20.8383 4.5203 20.1895 2.3592 19.231C1.54826 18.8659 0.752512 18.4647 0 17.9925C0.744436 16.4228 1.62474 14.9165 2.62001 13.4897C3.50792 12.231 4.49987 11.0325 5.67329 10.0228C6.28233 9.50222 6.94601 9.03897 7.67097 8.69035C7.12891 7.34476 6.68662 5.96158 6.14741 4.61551C6.15359 4.55491 6.20157 4.5098 6.22913 4.45812C6.64149 3.82902 7.0396 3.18723 7.39495 2.52571C7.43771 1.84164 7.4035 1.15333 7.41348 0.467382C7.42678 0.326903 7.3674 0.143669 7.49994 0.0435954ZM8.85057 3.25066C8.93703 3.34321 9.02682 3.43248 9.11803 3.51987C9.21257 3.48792 9.30806 3.45926 9.40117 3.42262C9.21827 3.36389 9.03442 3.30798 8.85057 3.25066ZM10.4178 3.42778C10.4777 3.44517 10.5375 3.46302 10.5979 3.4804C10.6554 3.42543 10.7124 3.37046 10.7699 3.31502C10.652 3.35214 10.5347 3.38926 10.4178 3.42778ZM9.34559 3.75854C9.50806 3.90466 9.63918 4.10763 9.81971 4.21898C10.0055 4.05971 10.1751 3.88211 10.3527 3.71391C10.2088 3.67491 10.0696 3.62135 9.92423 3.58894C9.72707 3.63028 9.54037 3.7078 9.34559 3.75854Z" fill="#DDD9D3"/>
</svg>
