<?xml version="1.0" encoding="UTF-8" standalone="no"?>
<svg
   xmlns:dc="http://purl.org/dc/elements/1.1/"
   xmlns:cc="http://creativecommons.org/ns#"
   xmlns:rdf="http://www.w3.org/1999/02/22-rdf-syntax-ns#"
   xmlns:svg="http://www.w3.org/2000/svg"
   xmlns="http://www.w3.org/2000/svg"
   xmlns:sodipodi="http://sodipodi.sourceforge.net/DTD/sodipodi-0.dtd"
   xmlns:inkscape="http://www.inkscape.org/namespaces/inkscape"
   sodipodi:docname="mall-m.svg"
   inkscape:version="1.0 (4035a4fb49, 2020-05-01)"
   id="svg8"
   version="1.1"
   viewBox="0 0 10.054166 10.054167"
   height="38"
   width="38">
  <defs
     id="defs2" />
  <sodipodi:namedview
     inkscape:window-maximized="1"
     inkscape:window-y="-8"
     inkscape:window-x="1432"
     inkscape:window-height="1017"
     inkscape:window-width="1920"
     fit-margin-bottom="0"
     fit-margin-right="0"
     fit-margin-left="0"
     fit-margin-top="0"
     units="px"
     showgrid="false"
     inkscape:document-rotation="0"
     inkscape:current-layer="layer1"
     inkscape:document-units="mm"
     inkscape:cy="28.878956"
     inkscape:cx="17.330866"
     inkscape:zoom="3.959798"
     inkscape:pageshadow="2"
     inkscape:pageopacity="0.0"
     borderopacity="1.0"
     bordercolor="#666666"
     pagecolor="#ffffff"
     id="base" />
  <metadata
     id="metadata5">
    <rdf:RDF>
      <cc:Work
         rdf:about="">
        <dc:format>image/svg+xml</dc:format>
        <dc:type
           rdf:resource="http://purl.org/dc/dcmitype/StillImage" />
        <dc:title></dc:title>
      </cc:Work>
    </rdf:RDF>
  </metadata>
  <g
     id="layer1"
     inkscape:groupmode="layer"
     inkscape:label="Layer 1">
    <rect
       y="0.06681738"
       x="0"
       height="9.9557896"
       width="10.22306"
       id="rect28"
       style="fill:#eb8271;fill-rule:evenodd;stroke-width:0.264583;fill-opacity:1" />
    <g
       transform="matrix(0.26458333,0,0,0.26458333,2.3654704,1.8322728)"
       id="g919"
       style="fill:#fffafa;fill-opacity:1">
      <path
         style="fill:#fffafa;fill-opacity:1"
         d="M 7.49994,0.0435954 C 7.63724,-0.0696338 7.86337,0.0539316 7.84817,0.228239 7.85767,0.88976 7.85577,1.55128 7.84722,2.2128 8.01397,2.38758 8.18309,2.55954 8.34984,2.73384 8.42823,2.82875 8.55602,2.84566 8.66719,2.88278 9.08715,3.004 9.49951,3.1534 9.92328,3.26193 10.3641,3.12991 10.8055,2.99601 11.2421,2.84989 11.5081,2.64364 11.7323,2.38617 11.9827,2.16065 11.9761,1.55034 11.9784,0.939562 11.9799,0.329252 11.9856,0.240924 11.9675,0.133803 12.0416,0.0670869 c 0.1117,-0.130143 0.3606,-0.0549701 0.371,0.1188671 0.0152,0.71931 -0.0085,1.440496 0.011,2.159806 0.2632,0.51212 0.5957,0.98618 0.8964,1.47715 0.173,0.26405 0.3578,0.5201 0.5369,0.77992 -0.1549,0.32277 -0.2495,0.66904 -0.3896,0.99792 -0.1159,0.26122 -0.1829,0.54077 -0.2979,0.80247 -0.1995,0.46936 -0.3173,0.96879 -0.5396,1.42875 -0.1012,0.28519 -0.2115,0.56615 -0.3302,0.84429 1.3264,0.63333 2.4333,1.63034 3.411,2.70434 1.1957,1.332 2.2048,2.8176 3.1022,4.3586 0.4257,0.7348 0.8252,1.4852 1.1872,2.2529 -1.3169,0.848 -2.7526,1.5086 -4.2343,2.0202 -2.0984,0.717 -4.3307,1.0933 -6.55313,0.9618 C 6.84149,20.8383 4.5203,20.1895 2.3592,19.231 1.54826,18.8659 0.752512,18.4647 0,17.9925 0.744436,16.4228 1.62474,14.9165 2.62001,13.4897 3.50792,12.231 4.49987,11.0325 5.67329,10.0228 6.28233,9.50222 6.94601,9.03897 7.67097,8.69035 7.12891,7.34476 6.68662,5.96158 6.14741,4.61551 6.15359,4.55491 6.20157,4.5098 6.22913,4.45812 6.64149,3.82902 7.0396,3.18723 7.39495,2.52571 7.43771,1.84164 7.4035,1.15333 7.41348,0.467382 7.42678,0.326903 7.3674,0.143669 7.49994,0.0435954 Z M 8.85057,3.25066 C 8.93703,3.34321 9.02682,3.43248 9.11803,3.51987 9.21257,3.48792 9.30806,3.45926 9.40117,3.42262 9.21827,3.36389 9.03442,3.30798 8.85057,3.25066 Z m 1.56723,0.17712 c 0.0599,0.01739 0.1197,0.03524 0.1801,0.05262 0.0575,-0.05497 0.1145,-0.10994 0.172,-0.16538 -0.1179,0.03712 -0.2352,0.07424 -0.3521,0.11276 z M 9.34559,3.75854 C 9.50806,3.90466 9.63918,4.10763 9.81971,4.21898 10.0055,4.05971 10.1751,3.88211 10.3527,3.71391 10.2088,3.67491 10.0696,3.62135 9.92423,3.58894 9.72707,3.63028 9.54037,3.7078 9.34559,3.75854 Z"
         fill="#ddd9d3"
         id="path908" />
    </g>
  </g>
</svg>
