<?xml version="1.0" encoding="UTF-8" standalone="no"?>
<svg
   xmlns:dc="http://purl.org/dc/elements/1.1/"
   xmlns:cc="http://creativecommons.org/ns#"
   xmlns:rdf="http://www.w3.org/1999/02/22-rdf-syntax-ns#"
   xmlns:svg="http://www.w3.org/2000/svg"
   xmlns="http://www.w3.org/2000/svg"
   xmlns:sodipodi="http://sodipodi.sourceforge.net/DTD/sodipodi-0.dtd"
   xmlns:inkscape="http://www.inkscape.org/namespaces/inkscape"
   sodipodi:docname="marketplace-m.svg"
   inkscape:version="1.0 (4035a4fb49, 2020-05-01)"
   id="svg8"
   version="1.1"
   viewBox="0 0 10.054166 10.054167"
   height="38"
   width="38">
  <defs
     id="defs2" />
  <sodipodi:namedview
     inkscape:window-maximized="1"
     inkscape:window-y="-8"
     inkscape:window-x="1432"
     inkscape:window-height="1017"
     inkscape:window-width="1920"
     fit-margin-bottom="0"
     fit-margin-right="0"
     fit-margin-left="0"
     fit-margin-top="0"
     units="px"
     showgrid="false"
     inkscape:document-rotation="0"
     inkscape:current-layer="layer1"
     inkscape:document-units="mm"
     inkscape:cy="28.878956"
     inkscape:cx="17.330866"
     inkscape:zoom="3.959798"
     inkscape:pageshadow="2"
     inkscape:pageopacity="0.0"
     borderopacity="1.0"
     bordercolor="#666666"
     pagecolor="#ffffff"
     id="base" />
  <metadata
     id="metadata5">
    <rdf:RDF>
      <cc:Work
         rdf:about="">
        <dc:format>image/svg+xml</dc:format>
        <dc:type
           rdf:resource="http://purl.org/dc/dcmitype/StillImage" />
        <dc:title></dc:title>
      </cc:Work>
    </rdf:RDF>
  </metadata>
  <g
     id="layer1"
     inkscape:groupmode="layer"
     inkscape:label="Layer 1">
    <rect
       y="0.06681738"
       x="0"
       height="9.9557896"
       width="10.22306"
       id="rect28"
       style="fill:#eb8271;fill-rule:evenodd;stroke-width:0.264583;fill-opacity:1" />
    <g
       transform="matrix(0.26458333,0,0,0.26458333,2.4323028,2.3819506)"
       id="g941"
       style="fill:#fffafa">
      <path
         style="fill:#fffafa"
         d="M 11.5044,3.30962 C 11.7995,3.07774 11.7784,2.61399 11.4411,2.44536 11.3146,2.38212 11.146,2.36104 10.9984,2.42428 L 9.22777,3.14098 9.92339,1.11735 C 10.0077,0.885473 9.90231,0.611439 9.67044,0.484962 L 9.58612,0.463882 C 9.37532,0.337405 9.10129,0.400643 8.93265,0.590359 L 7.6468,2.27672 7.26737,0.421723 C 7.24629,0.274166 7.14089,0.147689 7.01441,0.0633708 6.74038,-0.084186 6.44527,0.0422913 6.31879,0.274166 6.27663,0.337405 6.25555,0.421723 6.25555,0.484962 L 6.08691,3.24638 9.291,4.9749 Z"
         fill="#ddd9d3"
         id="path921" />
      <path
         style="fill:#fffafa"
         d="M 4.06348,10.2027 C 4.1478,10.0341 4.37968,9.97082 4.54831,10.0551 L 6.65627,11.1724 9.39661,7.90502 C 10.029,7.14616 9.79712,5.98679 8.93286,5.52304 L 5.83417,3.85775 C 4.9699,3.394 3.87377,3.83667 3.59973,4.78525 L 3.38894,5.48088 6.25576,7.01968 C 6.42439,7.104 6.50871,7.33588 6.40331,7.50451 l -0.1054,0.2108 C 6.2136,7.88394 5.98172,7.94718 5.81309,7.86286 L 3.07275,6.45054 1.34422,12.2685 2.98843,13.1538 c 0.16863,0.0843 0.23187,0.3162 0.14755,0.4849 l -0.10539,0.2108 c -0.08432,0.1686 -0.3162,0.2318 -0.48483,0.1475 l -1.47557,-0.7799 -1.032898,3.457 c -0.252954,0.8432 0.843181,1.4334 1.412328,0.7589 L 6.02388,11.9312 4.10564,10.8983 C 3.93701,10.814 3.85269,10.5821 3.95809,10.4135 Z"
         fill="#ddd9d3"
         id="path923" />
      <path
         style="fill:#fffafa"
         d="m 17.8705,9.5279 c -0.0632,0.35836 -0.3584,0.6535 -0.7378,0.7167 l -0.274,0.0422 0.8221,1.5388 c 0.1475,0.274 0.1475,0.6113 -0.0211,0.9064 -0.1686,0.274 -0.4637,0.4427 -0.7799,0.4427 -0.1687,0 -0.3162,-0.0422 -0.4638,-0.1265 l -2.2977,-1.3491 -2.2344,1.3491 c -0.1475,0.0843 -0.3162,0.1265 -0.4637,0.1265 -0.3162,0 -0.5903,-0.1687 -0.78,-0.4216 -0.1686,-0.253 -0.1897,-0.5903 -0.0632,-0.8643 l 0.7378,-1.602 -0.4849,-0.1265 C 10.5348,10.076 10.3029,9.86518 10.1975,9.59114 8.95385,10.4976 8.15283,11.8467 8.15283,13.3644 c 0,2.7614 2.65607,4.9958 5.92337,4.9958 3.2673,0 5.9233,-2.2344 5.9233,-4.9958 0.0211,-1.5388 -0.8221,-2.9301 -2.129,-3.8365 z"
         fill="#ddd9d3"
         id="path925" />
      <path
         style="fill:#fffafa"
         d="m 11.0199,9.40178 1.2648,0.3162 c 0.0632,0.02108 0.1054,0.10539 0.0843,0.16863 l -1.0751,2.33979 c -0.0421,0.1054 0.0633,0.2108 0.1687,0.1476 l 2.5717,-1.5599 c 0.0421,-0.0211 0.0843,-0.0211 0.1264,0 l 2.635,1.5599 c 0.1054,0.0632 0.2319,-0.0632 0.1686,-0.1686 L 15.6995,9.84445 c -0.0421,-0.06324 0,-0.16863 0.0844,-0.16863 l 1.1804,-0.2108 C 17.0908,9.44394 17.0908,9.25423 16.9854,9.23315 16.3952,9.06451 15.3834,8.79048 14.5823,8.68508 14.6456,7.92621 14.8985,6.9144 15.0882,6.49281 c 0.1476,-0.33728 -1.0329,-0.35836 -1.1593,0 C 13.8235,6.809 13.6338,7.86298 13.5705,8.664 12.7484,8.74832 11.6312,9.00127 10.9988,9.16991 10.9145,9.21207 10.9145,9.3807 11.0199,9.40178 Z"
         fill="#ddd9d3"
         id="path927" />
    </g>
  </g>
</svg>
