<svg width="20" height="19" viewBox="0 0 20 19" fill="none" xmlns="http://www.w3.org/2000/svg">
<path d="M11.5044 3.30962C11.7995 3.07774 11.7784 2.61399 11.4411 2.44536C11.3146 2.38212 11.146 2.36104 10.9984 2.42428L9.22777 3.14098L9.92339 1.11735C10.0077 0.885473 9.90231 0.611439 9.67044 0.484962L9.58612 0.463882C9.37532 0.337405 9.10129 0.400643 8.93265 0.590359L7.6468 2.27672L7.26737 0.421723C7.24629 0.274166 7.14089 0.147689 7.01441 0.0633708C6.74038 -0.084186 6.44527 0.0422913 6.31879 0.274166C6.27663 0.337405 6.25555 0.421723 6.25555 0.484962L6.08691 3.24638L9.291 4.9749L11.5044 3.30962Z" fill="#DDD9D3"/>
<path d="M4.06348 10.2027C4.1478 10.0341 4.37968 9.97082 4.54831 10.0551L6.65627 11.1724L9.39661 7.90502C10.029 7.14616 9.79712 5.98679 8.93286 5.52304L5.83417 3.85775C4.9699 3.394 3.87377 3.83667 3.59973 4.78525L3.38894 5.48088L6.25576 7.01968C6.42439 7.104 6.50871 7.33588 6.40331 7.50451L6.29791 7.71531C6.2136 7.88394 5.98172 7.94718 5.81309 7.86286L3.07275 6.45054L1.34422 12.2685L2.98843 13.1538C3.15706 13.2381 3.2203 13.47 3.13598 13.6387L3.03059 13.8495C2.94627 14.0181 2.71439 14.0813 2.54576 13.997L1.07019 13.2171L0.037292 16.6741C-0.215662 17.5173 0.880473 18.1075 1.44962 17.433L6.02388 11.9312L4.10564 10.8983C3.93701 10.814 3.85269 10.5821 3.95809 10.4135L4.06348 10.2027Z" fill="#DDD9D3"/>
<path d="M17.8705 9.5279C17.8073 9.88626 17.5121 10.1814 17.1327 10.2446L16.8587 10.2868L17.6808 11.8256C17.8283 12.0996 17.8283 12.4369 17.6597 12.732C17.4911 13.006 17.196 13.1747 16.8798 13.1747C16.7111 13.1747 16.5636 13.1325 16.416 13.0482L14.1183 11.6991L11.8839 13.0482C11.7364 13.1325 11.5677 13.1747 11.4202 13.1747C11.104 13.1747 10.8299 13.006 10.6402 12.7531C10.4716 12.5001 10.4505 12.1628 10.577 11.8888L11.3148 10.2868L10.8299 10.1603C10.5348 10.076 10.3029 9.86518 10.1975 9.59114C8.95385 10.4976 8.15283 11.8467 8.15283 13.3644C8.15283 16.1258 10.8089 18.3602 14.0762 18.3602C17.3435 18.3602 19.9995 16.1258 19.9995 13.3644C20.0206 11.8256 19.1774 10.4343 17.8705 9.5279Z" fill="#DDD9D3"/>
<path d="M11.0199 9.40178L12.2847 9.71798C12.3479 9.73906 12.3901 9.82337 12.369 9.88661L11.2939 12.2264C11.2518 12.3318 11.3572 12.4372 11.4626 12.374L14.0343 10.8141C14.0764 10.793 14.1186 10.793 14.1607 10.8141L16.7957 12.374C16.9011 12.4372 17.0276 12.3108 16.9643 12.2054L15.6995 9.84445C15.6574 9.78121 15.6995 9.67582 15.7839 9.67582L16.9643 9.46502C17.0908 9.44394 17.0908 9.25423 16.9854 9.23315C16.3952 9.06451 15.3834 8.79048 14.5823 8.68508C14.6456 7.92621 14.8985 6.9144 15.0882 6.49281C15.2358 6.15553 14.0553 6.13445 13.9289 6.49281C13.8235 6.809 13.6338 7.86298 13.5705 8.664C12.7484 8.74832 11.6312 9.00127 10.9988 9.16991C10.9145 9.21207 10.9145 9.3807 11.0199 9.40178Z" fill="#DDD9D3"/>
</svg>
