<svg width="20" height="18" viewBox="0 0 20 18" fill="none" xmlns="http://www.w3.org/2000/svg">
<path fill-rule="evenodd" clip-rule="evenodd" d="M17.0336 16.5096C17.0472 16.6568 17.0374 16.8061 17.0374 16.9763C17.2777 16.9763 17.6243 16.9763 17.8725 16.9763C17.882 16.7706 17.8915 16.5642 17.903 16.3185C18.5717 16.3888 19.1588 16.4111 19.7803 16.6568C19.7839 16.6923 19.7875 16.7277 19.7915 16.7636C19.6355 16.8158 19.4829 16.8975 19.3227 16.9158C18.365 17.0244 17.4073 17.1744 16.4465 17.2071C13.9579 17.2923 11.4678 17.3691 8.97858 17.3643C6.45458 17.3596 3.92765 17.3146 1.41584 17.008C1.13831 16.9741 0.864616 16.9068 0.590696 16.8472C0.527014 16.8334 0.470558 16.7878 0.357422 16.7295C0.669054 16.4816 1.00327 16.4829 1.31219 16.4405C1.87629 16.3628 2.44491 16.3165 3.01262 16.2743C3.18018 16.2616 3.2547 16.1934 3.31748 16.0471C3.86374 14.7748 4.1354 13.4429 4.19389 12.0647C4.24605 10.8426 4.16408 9.62882 3.93036 8.427C3.92065 8.37665 3.9071 8.32719 3.89965 8.2949C3.59885 8.40126 3.31545 8.54714 3.01511 8.60044C1.58905 8.85381 0.428781 7.48624 0.897585 6.1137C0.949298 5.9624 0.94049 5.86891 0.841129 5.74087C0.235478 4.96382 0.321064 3.86272 1.03872 3.18842C1.15141 3.08273 1.1986 2.98586 1.19499 2.82959C1.16789 1.59909 2.08811 0.743908 3.31138 0.83943C3.40284 0.846656 3.53043 0.789975 3.59208 0.719971C4.37793 -0.172021 5.55401 -0.242251 6.44148 0.548799C6.50404 0.604802 6.64856 0.630772 6.72579 0.599383C8.17082 0.0122488 9.56594 1.06096 9.41938 2.62454C9.41125 2.71284 9.46951 2.84269 9.54019 2.89733C10.6183 3.73152 10.6133 5.19438 9.52032 6.02269C9.42028 6.09857 9.34622 6.15254 9.36948 6.31355C9.48193 7.09715 9.20733 7.74028 8.56013 8.18515C7.91993 8.6255 7.23208 8.63295 6.54265 8.27141C6.49794 8.24793 6.45052 8.22873 6.3568 8.18583C6.27325 8.68331 6.17524 9.15166 6.11833 9.62498C5.86338 11.747 6.07836 13.8216 6.76328 15.8488C6.83419 16.0588 6.93287 16.1128 7.13972 16.099C7.44345 16.0792 7.61665 16.0941 7.95222 16.0941C7.95222 16.3906 7.95968 16.7298 7.95968 17.0369C8.21305 17.0369 8.64414 17.0369 8.90022 17.0369C8.90022 16.7986 8.88396 16.5333 8.88396 16.5333C8.88396 16.5333 8.95351 16.5317 8.90677 16.5234C8.96661 16.538 8.93161 16.5107 8.93161 16.5107C8.93161 16.5107 8.95938 16.4543 8.96593 16.5234C9.19808 16.5234 9.58784 16.5432 9.82834 16.5432C9.83805 16.4156 9.84166 16.2262 9.85544 16.0451C11.9858 16.0893 13.939 16.123 16.0642 16.1675C16.0899 16.2908 16.0718 16.4877 16.0928 16.5861C16.3056 16.5861 16.7852 16.5958 16.9451 16.5958C16.9611 16.5035 16.9412 16.2119 16.9412 16.2119C16.9412 16.2119 16.972 16.2165 17.0239 16.2034" fill="#DDD9D3"/>
<path fill-rule="evenodd" clip-rule="evenodd" d="M18.1709 14.4995C18.0147 14.5131 17.8952 14.4979 17.7523 14.5104C17.7523 15.1156 17.7523 15.7101 17.7523 16.3052C17.7523 16.4102 17.7532 16.5152 17.7536 16.6204C17.7548 16.9736 17.7699 16.8862 17.4316 16.898C17.2162 16.9056 17.1258 16.9142 17.1297 16.6922C17.1419 15.9746 17.1344 15.2567 17.1344 14.5165C17.0285 14.5165 16.9398 14.5165 16.8162 14.5165C16.8162 15.0623 16.8194 15.6033 16.8133 16.1444C16.8122 16.2417 16.7885 16.4149 16.7503 16.4222C16.5922 16.4522 16.4226 16.4445 16.2619 16.4192C16.2318 16.4145 16.2088 16.2672 16.2083 16.1855C16.2036 15.6343 16.2056 15.083 16.2056 14.5122C14.0244 14.5122 11.8635 14.5122 9.66992 14.5122C9.66992 15.1539 9.66992 15.7887 9.66992 16.4158C9.61346 16.4337 9.58975 16.4461 9.56491 16.4486C9.05411 16.4992 9.04914 16.491 9.05411 15.9872C9.05862 15.4988 9.05501 15.0101 9.05501 14.5086C8.94729 14.5086 8.87322 14.5086 8.76393 14.5086C8.76393 15.0309 8.7637 15.5448 8.76438 16.0588C8.7646 16.2695 8.75557 16.4809 8.77273 16.6898C8.79554 16.9659 8.63634 16.9716 8.42813 16.9759C8.21721 16.9804 8.13411 16.928 8.13953 16.699C8.15421 16.059 8.14518 15.4184 8.14427 14.7782C8.14427 14.6928 8.13727 14.607 8.13298 14.509C8.03407 14.4991 8.0011 14.5022 7.84619 14.4995C7.84619 14.3107 7.8638 14.2053 7.89406 14.0691C8.21812 13.6003 8.58237 13.1369 8.58237 13.1369C8.58237 13.1369 9.09656 13.1419 9.5412 13.1419C12.1553 13.1419 14.7692 13.1448 17.3831 13.1369C17.4788 13.1365 17.6242 13.1369 17.6242 13.1369C17.6242 13.1369 17.7369 13.2842 17.7785 13.3874C17.8875 13.6597 18.0298 13.9189 18.1447 14.189C18.1764 14.264 18.1619 14.3839 18.1709 14.4995Z" fill="#DDD9D3"/>
<path fill-rule="evenodd" clip-rule="evenodd" d="M17.6232 11.6646C17.6232 11.8527 17.6232 11.9139 17.6232 12.1187C14.611 12.1187 11.6046 12.1187 8.58203 12.1187C8.58203 11.9283 8.58203 11.868 8.58203 11.6646C11.5945 11.6646 14.6015 11.6646 17.6232 11.6646Z" fill="#DDD9D3"/>
<path fill-rule="evenodd" clip-rule="evenodd" d="M17.623 12.4019C17.623 12.6022 17.6309 12.6903 17.6309 12.905C17.5388 12.9098 17.4471 12.9193 17.3554 12.9193C14.5248 12.9202 11.698 12.8953 8.86752 12.9062C8.74693 12.9066 8.59044 12.9109 8.59044 12.9109C8.59044 12.9109 8.58366 12.8215 8.58253 12.7018C8.5814 12.5665 8.58253 12.3845 8.58253 12.3845C8.58253 12.3845 8.75528 12.3841 8.86029 12.3845C11.691 12.3947 14.5214 12.3902 17.3521 12.3902C17.4376 12.3902 17.5228 12.3974 17.623 12.4019Z" fill="#DDD9D3"/>
<path fill-rule="evenodd" clip-rule="evenodd" d="M8.61228 10.8444C11.622 10.8444 14.6101 10.8444 17.618 10.8444C17.618 11.0431 17.6162 11.1705 17.6162 11.3879C17.5117 11.3879 17.4179 11.3879 17.3242 11.3879C14.5532 11.3877 11.7819 11.3879 9.01108 11.3875C8.78029 11.3875 8.60551 11.3879 8.60551 11.3879C8.60551 11.3879 8.5967 11.1623 8.61228 10.8444Z" fill="#DDD9D3"/>
</svg>
