<?xml version="1.0" encoding="UTF-8" standalone="no"?>
<svg
   xmlns:dc="http://purl.org/dc/elements/1.1/"
   xmlns:cc="http://creativecommons.org/ns#"
   xmlns:rdf="http://www.w3.org/1999/02/22-rdf-syntax-ns#"
   xmlns:svg="http://www.w3.org/2000/svg"
   xmlns="http://www.w3.org/2000/svg"
   xmlns:sodipodi="http://sodipodi.sourceforge.net/DTD/sodipodi-0.dtd"
   xmlns:inkscape="http://www.inkscape.org/namespaces/inkscape"
   sodipodi:docname="park-m.svg"
   inkscape:version="1.0 (4035a4fb49, 2020-05-01)"
   id="svg8"
   version="1.1"
   viewBox="0 0 10.054166 10.054167"
   height="38"
   width="38">
  <defs
     id="defs2" />
  <sodipodi:namedview
     inkscape:window-maximized="1"
     inkscape:window-y="-8"
     inkscape:window-x="1432"
     inkscape:window-height="1017"
     inkscape:window-width="1920"
     fit-margin-bottom="0"
     fit-margin-right="0"
     fit-margin-left="0"
     fit-margin-top="0"
     units="px"
     showgrid="false"
     inkscape:document-rotation="0"
     inkscape:current-layer="layer1"
     inkscape:document-units="mm"
     inkscape:cy="28.878956"
     inkscape:cx="17.330866"
     inkscape:zoom="3.959798"
     inkscape:pageshadow="2"
     inkscape:pageopacity="0.0"
     borderopacity="1.0"
     bordercolor="#666666"
     pagecolor="#ffffff"
     id="base" />
  <metadata
     id="metadata5">
    <rdf:RDF>
      <cc:Work
         rdf:about="">
        <dc:format>image/svg+xml</dc:format>
        <dc:type
           rdf:resource="http://purl.org/dc/dcmitype/StillImage" />
        <dc:title></dc:title>
      </cc:Work>
    </rdf:RDF>
  </metadata>
  <g
     id="layer1"
     inkscape:groupmode="layer"
     inkscape:label="Layer 1">
    <rect
       y="0.06681738"
       x="0"
       height="9.9557896"
       width="10.22306"
       id="rect28"
       style="fill:#eb8271;fill-rule:evenodd;stroke-width:0.264583;fill-opacity:1" />
    <g
       transform="matrix(0.26458333,0,0,0.26458333,2.3457692,2.5136711)"
       id="g966"
       style="fill:#fffafa">
      <path
         style="fill:#fffafa"
         fill-rule="evenodd"
         clip-rule="evenodd"
         d="m 17.0336,16.5096 c 0.0136,0.1472 0.0038,0.2965 0.0038,0.4667 0.2403,0 0.5869,0 0.8351,0 0.0095,-0.2057 0.019,-0.4121 0.0305,-0.6578 0.6687,0.0703 1.2558,0.0926 1.8773,0.3383 0.0036,0.0355 0.0072,0.0709 0.0112,0.1068 -0.156,0.0522 -0.3086,0.1339 -0.4688,0.1522 -0.9577,0.1086 -1.9154,0.2586 -2.8762,0.2913 -2.4886,0.0852 -4.9787,0.162 -7.46792,0.1572 C 6.45458,17.3596 3.92765,17.3146 1.41584,17.008 1.13831,16.9741 0.864616,16.9068 0.590696,16.8472 0.527014,16.8334 0.470558,16.7878 0.357422,16.7295 0.669054,16.4816 1.00327,16.4829 1.31219,16.4405 1.87629,16.3628 2.44491,16.3165 3.01262,16.2743 3.18018,16.2616 3.2547,16.1934 3.31748,16.0471 3.86374,14.7748 4.1354,13.4429 4.19389,12.0647 4.24605,10.8426 4.16408,9.62882 3.93036,8.427 3.92065,8.37665 3.9071,8.32719 3.89965,8.2949 3.59885,8.40126 3.31545,8.54714 3.01511,8.60044 1.58905,8.85381 0.428781,7.48624 0.897585,6.1137 0.949298,5.9624 0.94049,5.86891 0.841129,5.74087 0.235478,4.96382 0.321064,3.86272 1.03872,3.18842 1.15141,3.08273 1.1986,2.98586 1.19499,2.82959 1.16789,1.59909 2.08811,0.743908 3.31138,0.83943 3.40284,0.846656 3.53043,0.789975 3.59208,0.719971 4.37793,-0.172021 5.55401,-0.242251 6.44148,0.548799 6.50404,0.604802 6.64856,0.630772 6.72579,0.599383 8.17082,0.0122488 9.56594,1.06096 9.41938,2.62454 9.41125,2.71284 9.46951,2.84269 9.54019,2.89733 10.6183,3.73152 10.6133,5.19438 9.52032,6.02269 9.42028,6.09857 9.34622,6.15254 9.36948,6.31355 9.48193,7.09715 9.20733,7.74028 8.56013,8.18515 7.91993,8.6255 7.23208,8.63295 6.54265,8.27141 6.49794,8.24793 6.45052,8.22873 6.3568,8.18583 6.27325,8.68331 6.17524,9.15166 6.11833,9.62498 5.86338,11.747 6.07836,13.8216 6.76328,15.8488 c 0.07091,0.21 0.16959,0.264 0.37644,0.2502 0.30373,-0.0198 0.47693,-0.0049 0.8125,-0.0049 0,0.2965 0.00746,0.6357 0.00746,0.9428 0.25337,0 0.68446,0 0.94054,0 0,-0.2383 -0.01626,-0.5036 -0.01626,-0.5036 0,0 0.06955,-0.0016 0.02281,-0.0099 0.05984,0.0146 0.02484,-0.0127 0.02484,-0.0127 0,0 0.02777,-0.0564 0.03432,0.0127 0.23215,0 0.62191,0.0198 0.86241,0.0198 0.00971,-0.1276 0.01332,-0.317 0.0271,-0.4981 2.13036,0.0442 4.08356,0.0779 6.20876,0.1224 0.0257,0.1233 0.0076,0.3202 0.0286,0.4186 0.2128,0 0.6924,0.0097 0.8523,0.0097 0.016,-0.0923 -0.0039,-0.3839 -0.0039,-0.3839 0,0 0.0308,0.0046 0.0827,-0.0085"
         fill="#ddd9d3"
         id="path943" />
      <path
         style="fill:#fffafa"
         fill-rule="evenodd"
         clip-rule="evenodd"
         d="m 18.1709,14.4995 c -0.1562,0.0136 -0.2757,-0.0016 -0.4186,0.0109 0,0.6052 0,1.1997 0,1.7948 0,0.105 9e-4,0.21 0.0013,0.3152 0.0012,0.3532 0.0163,0.2658 -0.322,0.2776 -0.2154,0.0076 -0.3058,0.0162 -0.3019,-0.2058 0.0122,-0.7176 0.0047,-1.4355 0.0047,-2.1757 -0.1059,0 -0.1946,0 -0.3182,0 0,0.5458 0.0032,1.0868 -0.0029,1.6279 -0.0011,0.0973 -0.0248,0.2705 -0.063,0.2778 -0.1581,0.03 -0.3277,0.0223 -0.4884,-0.003 -0.0301,-0.0047 -0.0531,-0.152 -0.0536,-0.2337 -0.0047,-0.5512 -0.0027,-1.1025 -0.0027,-1.6733 -2.1812,0 -4.3421,0 -6.53568,0 0,0.6417 0,1.2765 0,1.9036 -0.05646,0.0179 -0.08017,0.0303 -0.10501,0.0328 -0.5108,0.0506 -0.51577,0.0424 -0.5108,-0.4614 0.00451,-0.4884 9e-4,-0.9771 9e-4,-1.4786 -0.10772,0 -0.18179,0 -0.29108,0 0,0.5223 -2.3e-4,1.0362 4.5e-4,1.5502 2.2e-4,0.2107 -0.00881,0.4221 0.00835,0.631 0.02281,0.2761 -0.13639,0.2818 -0.3446,0.2861 -0.21092,0.0045 -0.29402,-0.0479 -0.2886,-0.2769 0.01468,-0.64 0.00565,-1.2806 0.00474,-1.9208 0,-0.0854 -0.007,-0.1712 -0.01129,-0.2692 -0.09891,-0.0099 -0.13188,-0.0068 -0.28679,-0.0095 0,-0.1888 0.01761,-0.2942 0.04787,-0.4304 0.32406,-0.4688 0.68831,-0.9322 0.68831,-0.9322 0,0 0.51419,0.005 0.95883,0.005 2.6141,0 5.228,0.0029 7.8419,-0.005 0.0957,-4e-4 0.2411,0 0.2411,0 0,0 0.1127,0.1473 0.1543,0.2505 0.109,0.2723 0.2513,0.5315 0.3662,0.8016 0.0317,0.075 0.0172,0.1949 0.0262,0.3105 z"
         fill="#ddd9d3"
         id="path945" />
      <path
         style="fill:#fffafa"
         fill-rule="evenodd"
         clip-rule="evenodd"
         d="m 17.6232,11.6646 c 0,0.1881 0,0.2493 0,0.4541 -3.0122,0 -6.0186,0 -9.04117,0 0,-0.1904 0,-0.2507 0,-0.4541 3.01247,0 6.01947,0 9.04117,0 z"
         fill="#ddd9d3"
         id="path947" />
      <path
         style="fill:#fffafa"
         fill-rule="evenodd"
         clip-rule="evenodd"
         d="m 17.623,12.4019 c 0,0.2003 0.0079,0.2884 0.0079,0.5031 -0.0921,0.0048 -0.1838,0.0143 -0.2755,0.0143 -2.8306,9e-4 -5.6574,-0.024 -8.48788,-0.0131 -0.12059,4e-4 -0.27708,0.0047 -0.27708,0.0047 0,0 -0.00678,-0.0894 -0.00791,-0.2091 -0.00113,-0.1353 0,-0.3173 0,-0.3173 0,0 0.17275,-4e-4 0.27776,0 2.83071,0.0102 5.66111,0.0057 8.49181,0.0057 0.0855,0 0.1707,0.0072 0.2709,0.0117 z"
         fill="#ddd9d3"
         id="path949" />
      <path
         style="fill:#fffafa"
         fill-rule="evenodd"
         clip-rule="evenodd"
         d="m 8.61228,10.8444 c 3.00972,0 5.99782,0 9.00572,0 0,0.1987 -0.0018,0.3261 -0.0018,0.5435 -0.1045,0 -0.1983,0 -0.292,0 -2.771,-2e-4 -5.5423,0 -8.31312,-4e-4 -0.23079,0 -0.40557,4e-4 -0.40557,4e-4 0,0 -0.00881,-0.2256 0.00677,-0.5435 z"
         fill="#ddd9d3"
         id="path951" />
    </g>
  </g>
</svg>
