<svg width="627" height="1030" viewBox="0 0 627 1030" fill="none" xmlns="http://www.w3.org/2000/svg">
<path d="M78.302 816.979H43.5684V905.51H78.302V816.979Z" stroke="#EDEDED" stroke-miterlimit="10"/>
<path d="M182.764 816.979H130.402V905.51H182.764V816.979Z" stroke="#EDEDED" stroke-miterlimit="10"/>
<path d="M130.402 905.51V816.979" stroke="#EDEDED" stroke-miterlimit="10"/>
<path d="M125.701 905.51V816.979" stroke="#EDEDED" stroke-miterlimit="10"/>
<path d="M120.87 905.51V816.979" stroke="#EDEDED" stroke-miterlimit="10"/>
<path d="M116.169 905.51V816.979" stroke="#EDEDED" stroke-miterlimit="10"/>
<path d="M111.468 905.51V816.979" stroke="#EDEDED" stroke-miterlimit="10"/>
<path d="M106.768 905.51V816.979" stroke="#EDEDED" stroke-miterlimit="10"/>
<path d="M101.936 905.51V816.979" stroke="#EDEDED" stroke-miterlimit="10"/>
<path d="M97.2354 905.51V816.979" stroke="#EDEDED" stroke-miterlimit="10"/>
<path d="M92.5347 905.51V816.979" stroke="#EDEDED" stroke-miterlimit="10"/>
<path d="M87.7031 905.51V816.979" stroke="#EDEDED" stroke-miterlimit="10"/>
<path d="M83.0024 905.51V816.979" stroke="#EDEDED" stroke-miterlimit="10"/>
<path d="M78.3018 905.51V816.979" stroke="#EDEDED" stroke-miterlimit="10"/>
<path d="M43.5684 905.51V816.979" stroke="#EDEDED" stroke-miterlimit="10"/>
<path d="M38.8677 905.51V816.979" stroke="#EDEDED" stroke-miterlimit="10"/>
<path d="M34.1665 905.51V816.979" stroke="#EDEDED" stroke-miterlimit="10"/>
<path d="M29.4658 905.51V816.979" stroke="#EDEDED" stroke-miterlimit="10"/>
<path d="M24.6343 905.51V816.979" stroke="#EDEDED" stroke-miterlimit="10"/>
<path d="M19.9336 905.51V816.979" stroke="#EDEDED" stroke-miterlimit="10"/>
<path d="M15.2329 905.51V816.979" stroke="#EDEDED" stroke-miterlimit="10"/>
<path d="M10.5322 905.51V816.979" stroke="#EDEDED" stroke-miterlimit="10"/>
<path d="M5.70068 905.51V816.979" stroke="#EDEDED" stroke-miterlimit="10"/>
<path d="M1 905.51V816.979" stroke="#EDEDED" stroke-miterlimit="10"/>
<path d="M225.332 905.51V816.979" stroke="#EDEDED" stroke-miterlimit="10"/>
<path d="M220.631 905.51V816.979" stroke="#EDEDED" stroke-miterlimit="10"/>
<path d="M215.93 905.51V816.979" stroke="#EDEDED" stroke-miterlimit="10"/>
<path d="M211.099 905.51V816.979" stroke="#EDEDED" stroke-miterlimit="10"/>
<path d="M206.398 905.51V816.979" stroke="#EDEDED" stroke-miterlimit="10"/>
<path d="M201.697 905.51V816.979" stroke="#EDEDED" stroke-miterlimit="10"/>
<path d="M196.866 905.51V816.979" stroke="#EDEDED" stroke-miterlimit="10"/>
<path d="M192.165 905.51V816.979" stroke="#EDEDED" stroke-miterlimit="10"/>
<path d="M187.464 905.51V816.979" stroke="#EDEDED" stroke-miterlimit="10"/>
<path d="M182.764 905.51V816.979" stroke="#EDEDED" stroke-miterlimit="10"/>
<path d="M225.332 816.979H1V905.51H225.332V816.979Z" stroke="#EDEDED" stroke-miterlimit="10"/>
<path d="M394.169 816.979H367.009V905.51H394.169V816.979Z" stroke="#EDEDED" stroke-miterlimit="10"/>
<path d="M497.717 816.979H432.037V905.51H497.717V816.979Z" stroke="#EDEDED" stroke-miterlimit="10"/>
<path d="M583.245 816.979H530.884V905.51H583.245V816.979Z" stroke="#EDEDED" stroke-miterlimit="10"/>
<path d="M432.037 816.979V905.51" stroke="#EDEDED" stroke-miterlimit="10"/>
<path d="M427.335 816.979V905.51" stroke="#EDEDED" stroke-miterlimit="10"/>
<path d="M422.635 816.979V905.51" stroke="#EDEDED" stroke-miterlimit="10"/>
<path d="M417.934 816.979V905.51" stroke="#EDEDED" stroke-miterlimit="10"/>
<path d="M413.103 816.979V905.51" stroke="#EDEDED" stroke-miterlimit="10"/>
<path d="M408.402 816.979V905.51" stroke="#EDEDED" stroke-miterlimit="10"/>
<path d="M403.701 816.979V905.51" stroke="#EDEDED" stroke-miterlimit="10"/>
<path d="M399 816.979V905.51" stroke="#EDEDED" stroke-miterlimit="10"/>
<path d="M394.169 816.979V905.51" stroke="#EDEDED" stroke-miterlimit="10"/>
<path d="M621.243 816.979V905.51" stroke="#EDEDED" stroke-miterlimit="10"/>
<path d="M616.542 816.979V905.51" stroke="#EDEDED" stroke-miterlimit="10"/>
<path d="M611.711 816.979V905.51" stroke="#EDEDED" stroke-miterlimit="10"/>
<path d="M607.01 816.979V905.51" stroke="#EDEDED" stroke-miterlimit="10"/>
<path d="M602.31 816.979V905.51" stroke="#EDEDED" stroke-miterlimit="10"/>
<path d="M597.608 816.979V905.51" stroke="#EDEDED" stroke-miterlimit="10"/>
<path d="M592.777 816.979V905.51" stroke="#EDEDED" stroke-miterlimit="10"/>
<path d="M588.076 816.979V905.51" stroke="#EDEDED" stroke-miterlimit="10"/>
<path d="M225.332 816.979H625.944V905.51H621.243" stroke="#EDEDED" stroke-miterlimit="10"/>
<path d="M367.009 816.979V905.51" stroke="#EDEDED" stroke-miterlimit="10"/>
<path d="M362.308 816.979V905.51" stroke="#EDEDED" stroke-miterlimit="10"/>
<path d="M357.607 816.979V905.51" stroke="#EDEDED" stroke-miterlimit="10"/>
<path d="M352.775 816.979V905.51" stroke="#EDEDED" stroke-miterlimit="10"/>
<path d="M348.075 816.979V905.51" stroke="#EDEDED" stroke-miterlimit="10"/>
<path d="M343.374 816.979V905.51" stroke="#EDEDED" stroke-miterlimit="10"/>
<path d="M338.542 816.979V905.51" stroke="#EDEDED" stroke-miterlimit="10"/>
<path d="M333.842 816.979V905.51" stroke="#EDEDED" stroke-miterlimit="10"/>
<path d="M329.141 816.979V905.51" stroke="#EDEDED" stroke-miterlimit="10"/>
<path d="M530.883 816.979V905.51" stroke="#EDEDED" stroke-miterlimit="10"/>
<path d="M526.183 816.979V905.51" stroke="#EDEDED" stroke-miterlimit="10"/>
<path d="M521.482 816.979V905.51" stroke="#EDEDED" stroke-miterlimit="10"/>
<path d="M516.781 816.979V905.51" stroke="#EDEDED" stroke-miterlimit="10"/>
<path d="M511.95 816.979V905.51" stroke="#EDEDED" stroke-miterlimit="10"/>
<path d="M507.249 816.979V905.51" stroke="#EDEDED" stroke-miterlimit="10"/>
<path d="M502.548 816.979V905.51" stroke="#EDEDED" stroke-miterlimit="10"/>
<path d="M497.717 816.979V905.51" stroke="#EDEDED" stroke-miterlimit="10"/>
<path d="M97.2357 922.747H43.5684V1028.51H97.2357V922.747Z" stroke="#EDEDED" stroke-miterlimit="10"/>
<path d="M182.764 922.747H130.402V1011.28H182.764V922.747Z" stroke="#EDEDED" stroke-miterlimit="10"/>
<path d="M130.402 1011.28V922.747" stroke="#EDEDED" stroke-miterlimit="10"/>
<path d="M125.702 1011.28V922.747" stroke="#EDEDED" stroke-miterlimit="10"/>
<path d="M120.871 1011.28V922.747" stroke="#EDEDED" stroke-miterlimit="10"/>
<path d="M116.169 1011.28V922.747" stroke="#EDEDED" stroke-miterlimit="10"/>
<path d="M111.469 1011.28V922.747" stroke="#EDEDED" stroke-miterlimit="10"/>
<path d="M106.768 1011.28V922.747" stroke="#EDEDED" stroke-miterlimit="10"/>
<path d="M101.937 1011.28V922.747" stroke="#EDEDED" stroke-miterlimit="10"/>
<path d="M97.2358 1011.28V922.747" stroke="#EDEDED" stroke-miterlimit="10"/>
<path d="M43.5684 1011.28V922.747" stroke="#EDEDED" stroke-miterlimit="10"/>
<path d="M38.8677 1011.28V922.747" stroke="#EDEDED" stroke-miterlimit="10"/>
<path d="M34.1665 1011.28V922.747" stroke="#EDEDED" stroke-miterlimit="10"/>
<path d="M29.4658 1011.28V922.747" stroke="#EDEDED" stroke-miterlimit="10"/>
<path d="M24.6343 1011.28V922.747" stroke="#EDEDED" stroke-miterlimit="10"/>
<path d="M19.9336 1011.28V922.747" stroke="#EDEDED" stroke-miterlimit="10"/>
<path d="M15.2329 1011.28V922.747" stroke="#EDEDED" stroke-miterlimit="10"/>
<path d="M10.5322 1011.28V922.747" stroke="#EDEDED" stroke-miterlimit="10"/>
<path d="M5.70068 1011.28V922.747" stroke="#EDEDED" stroke-miterlimit="10"/>
<path d="M1 1011.28V922.747H5.70079" stroke="#EDEDED" stroke-miterlimit="10"/>
<path d="M225.332 1011.28V922.747" stroke="#EDEDED" stroke-miterlimit="10"/>
<path d="M220.631 1011.28V922.747" stroke="#EDEDED" stroke-miterlimit="10"/>
<path d="M215.93 1011.28V922.747" stroke="#EDEDED" stroke-miterlimit="10"/>
<path d="M211.099 1011.28V922.747" stroke="#EDEDED" stroke-miterlimit="10"/>
<path d="M206.398 1011.28V922.747" stroke="#EDEDED" stroke-miterlimit="10"/>
<path d="M201.697 1011.28V922.747" stroke="#EDEDED" stroke-miterlimit="10"/>
<path d="M196.866 1011.28V922.747" stroke="#EDEDED" stroke-miterlimit="10"/>
<path d="M192.165 1011.28V922.747" stroke="#EDEDED" stroke-miterlimit="10"/>
<path d="M187.464 1011.28V922.747" stroke="#EDEDED" stroke-miterlimit="10"/>
<path d="M182.764 1011.28V922.747" stroke="#EDEDED" stroke-miterlimit="10"/>
<path d="M621.243 905.51H5.70068V922.747H621.243V905.51Z" stroke="#EDEDED" stroke-miterlimit="10"/>
<path d="M577.108 706.38H530.884V796.87H577.108V706.38Z" stroke="#EDEDED" stroke-miterlimit="10"/>
<path d="M394.169 706.38H367.009V796.87H394.169V706.38Z" stroke="#EDEDED" stroke-miterlimit="10"/>
<path d="M479.436 706.38H432.037V796.87H479.436V706.38Z" stroke="#EDEDED" stroke-miterlimit="10"/>
<path d="M621.243 706.38H595.128V796.87H621.243V706.38Z" stroke="#EDEDED" stroke-miterlimit="10"/>
<path d="M621.243 802.093H5.70068V816.979H621.243V802.093Z" stroke="#EDEDED" stroke-miterlimit="10"/>
<path d="M225.332 1011.28H97.2358V1028.51H225.332V1011.28Z" stroke="#EDEDED" stroke-miterlimit="10"/>
<path d="M43.5683 1011.28H1V1028.51H43.5683V1011.28Z" stroke="#EDEDED" stroke-miterlimit="10"/>
<path d="M97.2357 951.735H43.5684" stroke="#EDEDED" stroke-miterlimit="10"/>
<path d="M66.5498 951.735V1028.51" stroke="#EDEDED" stroke-miterlimit="10"/>
<path d="M74.3848 1028.51V951.735" stroke="#EDEDED" stroke-miterlimit="10"/>
<path d="M578.675 1011.28V922.747" stroke="#EDEDED" stroke-miterlimit="10"/>
<path d="M583.375 1011.28V922.747" stroke="#EDEDED" stroke-miterlimit="10"/>
<path d="M588.076 1011.28V922.747" stroke="#EDEDED" stroke-miterlimit="10"/>
<path d="M592.777 1011.28V922.747" stroke="#EDEDED" stroke-miterlimit="10"/>
<path d="M597.608 1011.28V922.747" stroke="#EDEDED" stroke-miterlimit="10"/>
<path d="M602.31 1011.28V922.747" stroke="#EDEDED" stroke-miterlimit="10"/>
<path d="M607.01 1011.28V922.747" stroke="#EDEDED" stroke-miterlimit="10"/>
<path d="M611.711 1011.28V922.747" stroke="#EDEDED" stroke-miterlimit="10"/>
<path d="M616.542 1011.28V922.747" stroke="#EDEDED" stroke-miterlimit="10"/>
<path d="M625.944 1011.28V922.747H621.243V1011.28" stroke="#EDEDED" stroke-miterlimit="10"/>
<path d="M329.141 1011.28V922.747" stroke="#EDEDED" stroke-miterlimit="10"/>
<path d="M333.842 1011.28V922.747" stroke="#EDEDED" stroke-miterlimit="10"/>
<path d="M338.542 1011.28V922.747" stroke="#EDEDED" stroke-miterlimit="10"/>
<path d="M343.374 1011.28V922.747" stroke="#EDEDED" stroke-miterlimit="10"/>
<path d="M348.075 1011.28V922.747" stroke="#EDEDED" stroke-miterlimit="10"/>
<path d="M352.775 1011.28V922.747" stroke="#EDEDED" stroke-miterlimit="10"/>
<path d="M357.607 1011.28V922.747" stroke="#EDEDED" stroke-miterlimit="10"/>
<path d="M362.308 1011.28V922.747" stroke="#EDEDED" stroke-miterlimit="10"/>
<path d="M367.009 1011.28V922.747" stroke="#EDEDED" stroke-miterlimit="10"/>
<path d="M371.709 1011.28V922.747" stroke="#EDEDED" stroke-miterlimit="10"/>
<path d="M376.541 1011.28V922.747" stroke="#EDEDED" stroke-miterlimit="10"/>
<path d="M381.242 1011.28V922.747" stroke="#EDEDED" stroke-miterlimit="10"/>
<path d="M329.139 1028.51L429.814 1028.51L429.814 1011.27L329.139 1011.27L329.139 1028.51Z" stroke="#EDEDED" stroke-miterlimit="10"/>
<path d="M500.646 1028.51L626 1028.51L626 1011.27L500.646 1011.27L500.646 1028.51Z" stroke="#EDEDED" stroke-miterlimit="10"/>
<path d="M225.332 1028.51H329.141V922.747" stroke="#EDEDED" stroke-miterlimit="10"/>
<path d="M314.255 922.747V1028.51" stroke="#EDEDED" stroke-miterlimit="10"/>
<path d="M429.816 1011.28V922.747" stroke="#EDEDED" stroke-miterlimit="10"/>
<path d="M578.545 922.747H500.59V1011.28H578.545V922.747Z" stroke="#EDEDED" stroke-miterlimit="10"/>
<path d="M530.884 922.747V1011.28" stroke="#EDEDED" stroke-miterlimit="10"/>
<path d="M429.816 1028.51C431.253 1028.51 500.589 1028.51 500.589 1028.51" stroke="#EDEDED" stroke-miterlimit="10"/>
<path d="M465.203 1028.51V945.859" stroke="#EDEDED" stroke-miterlimit="10"/>
<path d="M429.816 945.859H500.589" stroke="#EDEDED" stroke-miterlimit="10"/>
<path d="M464.942 905.51V816.979" stroke="#EDEDED" stroke-miterlimit="10"/>
<path d="M329.141 816.979H240.349V871.56H329.141V816.979Z" stroke="#EDEDED" stroke-miterlimit="10"/>
<path d="M329.141 796.87V706.38H621.243" stroke="#EDEDED" stroke-miterlimit="10"/>
<path d="M182.764 706.38H130.402V796.87H182.764V706.38Z" stroke="#EDEDED" stroke-miterlimit="10"/>
<path d="M29.466 706.38H10.5322V796.87H29.466V706.38Z" stroke="#EDEDED" stroke-miterlimit="10"/>
<path d="M81.5661 706.38H34.1665V796.87H81.5661V706.38Z" stroke="#EDEDED" stroke-miterlimit="10"/>
<path d="M313.864 706.38H225.332V796.87H313.864V706.38Z" stroke="#EDEDED" stroke-miterlimit="10"/>
<path d="M5.70068 796.87V706.38" stroke="#EDEDED" stroke-miterlimit="10"/>
<path d="M625.944 796.87H1V802.093H625.944V796.87Z" stroke="#EDEDED" stroke-miterlimit="10"/>
<path d="M313.864 770.493H225.332" stroke="#EDEDED" stroke-miterlimit="10"/>
<path d="M169.053 796.87V706.38" stroke="#EDEDED" stroke-miterlimit="10"/>
<path d="M67.9863 796.87V706.38" stroke="#EDEDED" stroke-miterlimit="10"/>
<path d="M465.856 796.87V706.38" stroke="#EDEDED" stroke-miterlimit="10"/>
<path d="M563.528 796.87V706.38" stroke="#EDEDED" stroke-miterlimit="10"/>
<path d="M544.628 701.079L590.852 701.079L590.852 610.589L544.628 610.589L544.628 701.079Z" stroke="#EDEDED" stroke-miterlimit="10"/>
<path d="M394.169 610.536H367.009V701.026H394.169V610.536Z" stroke="#EDEDED" stroke-miterlimit="10"/>
<path d="M445.798 701.079L493.197 701.079L493.197 610.589L445.798 610.589L445.798 701.079Z" stroke="#EDEDED" stroke-miterlimit="10"/>
<path d="M621.243 610.536H595.128V701.026H621.243V610.536Z" stroke="#EDEDED" stroke-miterlimit="10"/>
<path d="M225.332 701.026V610.536" stroke="#EDEDED" stroke-miterlimit="10"/>
<path d="M149.368 701.079L195.201 701.079L195.201 610.589L149.368 610.589L149.368 701.079Z" stroke="#EDEDED" stroke-miterlimit="10"/>
<path d="M29.466 610.536H10.5322V701.026H29.466V610.536Z" stroke="#EDEDED" stroke-miterlimit="10"/>
<path d="M47.9046 701.079L95.3042 701.079L95.3042 610.589L47.9046 610.589L47.9046 701.079Z" stroke="#EDEDED" stroke-miterlimit="10"/>
<path d="M240.612 701.079L329.144 701.079L329.144 610.589L240.612 610.589L240.612 701.079Z" stroke="#EDEDED" stroke-miterlimit="10"/>
<path d="M5.70068 701.026V610.536" stroke="#EDEDED" stroke-miterlimit="10"/>
<path d="M625.944 701.026H1V706.249H625.944V701.026Z" stroke="#EDEDED" stroke-miterlimit="10"/>
<path d="M625.944 605.313H1V610.536H625.944V605.313Z" stroke="#EDEDED" stroke-miterlimit="10"/>
<path d="M240.61 674.78H329.141" stroke="#EDEDED" stroke-miterlimit="10"/>
<path d="M163.047 701.026V610.536" stroke="#EDEDED" stroke-miterlimit="10"/>
<path d="M61.4575 701.026V610.536" stroke="#EDEDED" stroke-miterlimit="10"/>
<path d="M459.458 701.026V610.536" stroke="#EDEDED" stroke-miterlimit="10"/>
<path d="M558.174 701.026V610.536" stroke="#EDEDED" stroke-miterlimit="10"/>
<path d="M558.174 640.699H544.594" stroke="#EDEDED" stroke-miterlimit="10"/>
<path d="M558.174 670.863H544.594" stroke="#EDEDED" stroke-miterlimit="10"/>
<path d="M459.458 640.699H445.747" stroke="#EDEDED" stroke-miterlimit="10"/>
<path d="M459.458 670.863H445.747" stroke="#EDEDED" stroke-miterlimit="10"/>
<path d="M163.047 640.699H149.467" stroke="#EDEDED" stroke-miterlimit="10"/>
<path d="M163.047 670.863H149.467" stroke="#EDEDED" stroke-miterlimit="10"/>
<path d="M61.4572 640.699H47.7466" stroke="#EDEDED" stroke-miterlimit="10"/>
<path d="M61.4572 670.863H47.7466" stroke="#EDEDED" stroke-miterlimit="10"/>
<path d="M81.5664 736.543H67.9863" stroke="#EDEDED" stroke-miterlimit="10"/>
<path d="M81.5664 766.706H67.9863" stroke="#EDEDED" stroke-miterlimit="10"/>
<path d="M182.764 736.543H169.053" stroke="#EDEDED" stroke-miterlimit="10"/>
<path d="M182.764 766.706H169.053" stroke="#EDEDED" stroke-miterlimit="10"/>
<path d="M479.567 736.543H465.856" stroke="#EDEDED" stroke-miterlimit="10"/>
<path d="M479.567 766.706H465.856" stroke="#EDEDED" stroke-miterlimit="10"/>
<path d="M577.238 736.543H563.528" stroke="#EDEDED" stroke-miterlimit="10"/>
<path d="M577.238 766.706H563.528" stroke="#EDEDED" stroke-miterlimit="10"/>
<path d="M577.108 514.823H530.884V605.313H577.108V514.823Z" stroke="#EDEDED" stroke-miterlimit="10"/>
<path d="M394.169 514.823H367.009V605.313H394.169V514.823Z" stroke="#EDEDED" stroke-miterlimit="10"/>
<path d="M479.436 514.823H432.037V605.313H479.436V514.823Z" stroke="#EDEDED" stroke-miterlimit="10"/>
<path d="M621.243 514.823H595.128V605.313H621.243V514.823Z" stroke="#EDEDED" stroke-miterlimit="10"/>
<path d="M329.141 605.313V514.823H621.243" stroke="#EDEDED" stroke-miterlimit="10"/>
<path d="M182.764 514.823H130.402V605.313H182.764V514.823Z" stroke="#EDEDED" stroke-miterlimit="10"/>
<path d="M29.466 514.823H10.5322V605.313H29.466V514.823Z" stroke="#EDEDED" stroke-miterlimit="10"/>
<path d="M81.5661 514.823H34.1665V605.313H81.5661V514.823Z" stroke="#EDEDED" stroke-miterlimit="10"/>
<path d="M313.864 514.823H225.332V605.313H313.864V514.823Z" stroke="#EDEDED" stroke-miterlimit="10"/>
<path d="M5.70068 605.313V514.823" stroke="#EDEDED" stroke-miterlimit="10"/>
<path d="M313.864 579.067H225.332" stroke="#EDEDED" stroke-miterlimit="10"/>
<path d="M169.053 605.313V514.823" stroke="#EDEDED" stroke-miterlimit="10"/>
<path d="M67.9863 605.313V514.823" stroke="#EDEDED" stroke-miterlimit="10"/>
<path d="M465.856 605.313V514.823" stroke="#EDEDED" stroke-miterlimit="10"/>
<path d="M563.528 605.313V514.823" stroke="#EDEDED" stroke-miterlimit="10"/>
<path d="M544.628 509.534L590.852 509.534L590.852 419.044L544.628 419.044L544.628 509.534Z" stroke="#EDEDED" stroke-miterlimit="10"/>
<path d="M394.169 418.979H367.009V509.469H394.169V418.979Z" stroke="#EDEDED" stroke-miterlimit="10"/>
<path d="M445.798 509.534L493.197 509.534L493.197 419.044L445.798 419.044L445.798 509.534Z" stroke="#EDEDED" stroke-miterlimit="10"/>
<path d="M621.243 418.979H595.128V509.469H621.243V418.979Z" stroke="#EDEDED" stroke-miterlimit="10"/>
<path d="M225.332 509.469V418.979" stroke="#EDEDED" stroke-miterlimit="10"/>
<path d="M149.368 509.534L195.201 509.534L195.201 419.044L149.368 419.044L149.368 509.534Z" stroke="#EDEDED" stroke-miterlimit="10"/>
<path d="M29.466 418.979H10.5322V509.469H29.466V418.979Z" stroke="#EDEDED" stroke-miterlimit="10"/>
<path d="M47.9046 509.534L95.3042 509.534L95.3042 419.044L47.9046 419.044L47.9046 509.534Z" stroke="#EDEDED" stroke-miterlimit="10"/>
<path d="M240.612 509.534L329.144 509.534L329.144 419.044L240.612 419.044L240.612 509.534Z" stroke="#EDEDED" stroke-miterlimit="10"/>
<path d="M5.70068 509.469V418.979" stroke="#EDEDED" stroke-miterlimit="10"/>
<path d="M625.944 509.469H1V514.692H625.944V509.469Z" stroke="#EDEDED" stroke-miterlimit="10"/>
<path d="M625.944 413.755H1V418.979H625.944V413.755Z" stroke="#EDEDED" stroke-miterlimit="10"/>
<path d="M240.61 483.223H329.141" stroke="#EDEDED" stroke-miterlimit="10"/>
<path d="M163.047 509.469V418.979" stroke="#EDEDED" stroke-miterlimit="10"/>
<path d="M61.4575 509.469V418.979" stroke="#EDEDED" stroke-miterlimit="10"/>
<path d="M459.458 509.469V418.979" stroke="#EDEDED" stroke-miterlimit="10"/>
<path d="M558.174 509.469V418.979" stroke="#EDEDED" stroke-miterlimit="10"/>
<path d="M558.174 449.142H544.594" stroke="#EDEDED" stroke-miterlimit="10"/>
<path d="M558.174 479.306H544.594" stroke="#EDEDED" stroke-miterlimit="10"/>
<path d="M459.458 449.142H445.747" stroke="#EDEDED" stroke-miterlimit="10"/>
<path d="M459.458 479.306H445.747" stroke="#EDEDED" stroke-miterlimit="10"/>
<path d="M163.047 449.142H149.467" stroke="#EDEDED" stroke-miterlimit="10"/>
<path d="M163.047 479.306H149.467" stroke="#EDEDED" stroke-miterlimit="10"/>
<path d="M61.4572 449.142H47.7466" stroke="#EDEDED" stroke-miterlimit="10"/>
<path d="M61.4572 479.306H47.7466" stroke="#EDEDED" stroke-miterlimit="10"/>
<path d="M81.5664 544.986H67.9863" stroke="#EDEDED" stroke-miterlimit="10"/>
<path d="M81.5664 575.149H67.9863" stroke="#EDEDED" stroke-miterlimit="10"/>
<path d="M182.764 544.986H169.053" stroke="#EDEDED" stroke-miterlimit="10"/>
<path d="M182.764 575.149H169.053" stroke="#EDEDED" stroke-miterlimit="10"/>
<path d="M479.567 544.986H465.856" stroke="#EDEDED" stroke-miterlimit="10"/>
<path d="M479.567 575.149H465.856" stroke="#EDEDED" stroke-miterlimit="10"/>
<path d="M577.238 544.986H563.528" stroke="#EDEDED" stroke-miterlimit="10"/>
<path d="M577.238 575.149H563.528" stroke="#EDEDED" stroke-miterlimit="10"/>
<path d="M577.108 323.265H530.884V413.756H577.108V323.265Z" stroke="#EDEDED" stroke-miterlimit="10"/>
<path d="M394.169 323.265H367.009V413.756H394.169V323.265Z" stroke="#EDEDED" stroke-miterlimit="10"/>
<path d="M479.436 323.265H432.037V413.756H479.436V323.265Z" stroke="#EDEDED" stroke-miterlimit="10"/>
<path d="M621.243 323.265H595.128V413.756H621.243V323.265Z" stroke="#EDEDED" stroke-miterlimit="10"/>
<path d="M329.141 413.756V323.265H621.243" stroke="#EDEDED" stroke-miterlimit="10"/>
<path d="M182.764 323.265H130.402V413.756H182.764V323.265Z" stroke="#EDEDED" stroke-miterlimit="10"/>
<path d="M29.466 323.265H10.5322V413.756H29.466V323.265Z" stroke="#EDEDED" stroke-miterlimit="10"/>
<path d="M81.5661 323.265H34.1665V413.756H81.5661V323.265Z" stroke="#EDEDED" stroke-miterlimit="10"/>
<path d="M313.864 323.265H225.332V413.756H313.864V323.265Z" stroke="#EDEDED" stroke-miterlimit="10"/>
<path d="M5.70068 413.756V323.265" stroke="#EDEDED" stroke-miterlimit="10"/>
<path d="M313.864 387.51H225.332" stroke="#EDEDED" stroke-miterlimit="10"/>
<path d="M169.053 413.756V323.265" stroke="#EDEDED" stroke-miterlimit="10"/>
<path d="M67.9863 413.756V323.265" stroke="#EDEDED" stroke-miterlimit="10"/>
<path d="M465.856 413.756V323.265" stroke="#EDEDED" stroke-miterlimit="10"/>
<path d="M563.528 413.756V323.265" stroke="#EDEDED" stroke-miterlimit="10"/>
<path d="M544.628 317.989L590.852 317.989L590.852 227.499L544.628 227.499L544.628 317.989Z" stroke="#EDEDED" stroke-miterlimit="10"/>
<path d="M394.169 227.421H367.009V317.912H394.169V227.421Z" stroke="#EDEDED" stroke-miterlimit="10"/>
<path d="M445.798 317.989L493.197 317.989L493.197 227.499L445.798 227.499L445.798 317.989Z" stroke="#EDEDED" stroke-miterlimit="10"/>
<path d="M621.243 227.421H595.128V317.912H621.243V227.421Z" stroke="#EDEDED" stroke-miterlimit="10"/>
<path d="M225.332 317.912V227.421" stroke="#EDEDED" stroke-miterlimit="10"/>
<path d="M149.368 317.989L195.201 317.989L195.201 227.499L149.368 227.499L149.368 317.989Z" stroke="#EDEDED" stroke-miterlimit="10"/>
<path d="M29.466 227.421H10.5322V317.912H29.466V227.421Z" stroke="#EDEDED" stroke-miterlimit="10"/>
<path d="M47.9046 317.989L95.3042 317.989L95.3042 227.499L47.9046 227.499L47.9046 317.989Z" stroke="#EDEDED" stroke-miterlimit="10"/>
<path d="M240.612 317.989L329.144 317.989L329.144 227.499L240.612 227.499L240.612 317.989Z" stroke="#EDEDED" stroke-miterlimit="10"/>
<path d="M5.70068 317.912V227.421" stroke="#EDEDED" stroke-miterlimit="10"/>
<path d="M625.944 317.912H1V323.135H625.944V317.912Z" stroke="#EDEDED" stroke-miterlimit="10"/>
<path d="M625.944 222.198H1V227.421H625.944V222.198Z" stroke="#EDEDED" stroke-miterlimit="10"/>
<path d="M240.61 291.666H329.141" stroke="#EDEDED" stroke-miterlimit="10"/>
<path d="M163.047 317.912V227.421" stroke="#EDEDED" stroke-miterlimit="10"/>
<path d="M61.4575 317.912V227.421" stroke="#EDEDED" stroke-miterlimit="10"/>
<path d="M459.458 317.912V227.421" stroke="#EDEDED" stroke-miterlimit="10"/>
<path d="M558.174 317.912V227.421" stroke="#EDEDED" stroke-miterlimit="10"/>
<path d="M558.174 257.585H544.594" stroke="#EDEDED" stroke-miterlimit="10"/>
<path d="M558.174 287.748H544.594" stroke="#EDEDED" stroke-miterlimit="10"/>
<path d="M459.458 257.585H445.747" stroke="#EDEDED" stroke-miterlimit="10"/>
<path d="M459.458 287.748H445.747" stroke="#EDEDED" stroke-miterlimit="10"/>
<path d="M163.047 257.585H149.467" stroke="#EDEDED" stroke-miterlimit="10"/>
<path d="M163.047 287.748H149.467" stroke="#EDEDED" stroke-miterlimit="10"/>
<path d="M61.4572 257.585H47.7466" stroke="#EDEDED" stroke-miterlimit="10"/>
<path d="M61.4572 287.748H47.7466" stroke="#EDEDED" stroke-miterlimit="10"/>
<path d="M81.5664 353.429H67.9863" stroke="#EDEDED" stroke-miterlimit="10"/>
<path d="M81.5664 383.592H67.9863" stroke="#EDEDED" stroke-miterlimit="10"/>
<path d="M182.764 353.429H169.053" stroke="#EDEDED" stroke-miterlimit="10"/>
<path d="M182.764 383.592H169.053" stroke="#EDEDED" stroke-miterlimit="10"/>
<path d="M479.567 353.429H465.856" stroke="#EDEDED" stroke-miterlimit="10"/>
<path d="M479.567 383.592H465.856" stroke="#EDEDED" stroke-miterlimit="10"/>
<path d="M577.238 353.429H563.528" stroke="#EDEDED" stroke-miterlimit="10"/>
<path d="M577.238 383.592H563.528" stroke="#EDEDED" stroke-miterlimit="10"/>
<path d="M577.108 131.708H530.884V222.198H577.108V131.708Z" stroke="#EDEDED" stroke-miterlimit="10"/>
<path d="M394.169 131.708H367.009V222.198H394.169V131.708Z" stroke="#EDEDED" stroke-miterlimit="10"/>
<path d="M479.436 131.708H432.037V222.198H479.436V131.708Z" stroke="#EDEDED" stroke-miterlimit="10"/>
<path d="M621.243 131.708H595.128V222.198H621.243V131.708Z" stroke="#EDEDED" stroke-miterlimit="10"/>
<path d="M329.141 222.198V131.708H621.243" stroke="#EDEDED" stroke-miterlimit="10"/>
<path d="M182.764 131.708H130.402V222.198H182.764V131.708Z" stroke="#EDEDED" stroke-miterlimit="10"/>
<path d="M29.466 131.708H10.5322V222.198H29.466V131.708Z" stroke="#EDEDED" stroke-miterlimit="10"/>
<path d="M81.5661 131.708H34.1665V222.198H81.5661V131.708Z" stroke="#EDEDED" stroke-miterlimit="10"/>
<path d="M313.864 131.708H225.332V222.198H313.864V131.708Z" stroke="#EDEDED" stroke-miterlimit="10"/>
<path d="M5.70068 222.198V131.708" stroke="#EDEDED" stroke-miterlimit="10"/>
<path d="M313.864 195.952H225.332" stroke="#EDEDED" stroke-miterlimit="10"/>
<path d="M169.053 222.198V131.708" stroke="#EDEDED" stroke-miterlimit="10"/>
<path d="M67.9863 222.198V131.708" stroke="#EDEDED" stroke-miterlimit="10"/>
<path d="M465.856 222.198V131.708" stroke="#EDEDED" stroke-miterlimit="10"/>
<path d="M563.528 222.198V131.708" stroke="#EDEDED" stroke-miterlimit="10"/>
<path d="M625.944 126.354H1V131.578H625.944V126.354Z" stroke="#EDEDED" stroke-miterlimit="10"/>
<path d="M81.5664 161.872H67.9863" stroke="#EDEDED" stroke-miterlimit="10"/>
<path d="M81.5664 192.035H67.9863" stroke="#EDEDED" stroke-miterlimit="10"/>
<path d="M182.764 161.872H169.053" stroke="#EDEDED" stroke-miterlimit="10"/>
<path d="M182.764 192.035H169.053" stroke="#EDEDED" stroke-miterlimit="10"/>
<path d="M479.567 161.872H465.856" stroke="#EDEDED" stroke-miterlimit="10"/>
<path d="M479.567 192.035H465.856" stroke="#EDEDED" stroke-miterlimit="10"/>
<path d="M577.238 161.872H563.528" stroke="#EDEDED" stroke-miterlimit="10"/>
<path d="M577.238 192.035H563.528" stroke="#EDEDED" stroke-miterlimit="10"/>
<path d="M563.528 126.354V81.1747V35.8643" stroke="#EDEDED" stroke-miterlimit="10"/>
<path d="M394.169 35.8643H367.009V126.354H394.169V35.8643Z" stroke="#EDEDED" stroke-miterlimit="10"/>
<path d="M432.145 126.444L493.255 126.444L493.255 35.9537L432.145 35.9537L432.145 126.444Z" stroke="#EDEDED" stroke-miterlimit="10"/>
<path d="M225.332 126.354V35.8643" stroke="#EDEDED" stroke-miterlimit="10"/>
<path d="M130.317 126.444L195.214 126.444L195.214 35.9537L130.317 35.9537L130.317 126.444Z" stroke="#EDEDED" stroke-miterlimit="10"/>
<path d="M240.612 126.444L329.144 126.444L329.144 35.9537L240.612 35.9537L240.612 126.444Z" stroke="#EDEDED" stroke-miterlimit="10"/>
<path d="M329.141 30.6411V6.22314" stroke="#EDEDED" stroke-miterlimit="10"/>
<path d="M5.70068 126.354V35.8643" stroke="#EDEDED" stroke-miterlimit="10"/>
<path d="M625.944 1H1V6.2231H625.944V1Z" stroke="#EDEDED" stroke-miterlimit="10"/>
<path d="M625.944 30.6411H1V35.8642H625.944V30.6411Z" stroke="#EDEDED" stroke-miterlimit="10"/>
<path d="M240.61 100.108H329.141" stroke="#EDEDED" stroke-miterlimit="10"/>
<path d="M462.591 126.354V35.8643" stroke="#EDEDED" stroke-miterlimit="10"/>
<path d="M162.786 35.8643V126.354" stroke="#EDEDED" stroke-miterlimit="10"/>
<path d="M130.402 105.984H5.70068" stroke="#EDEDED" stroke-miterlimit="10"/>
<path d="M29.4658 30.6411V6.22314" stroke="#EDEDED" stroke-miterlimit="10"/>
<path d="M29.4658 126.354V35.8643" stroke="#EDEDED" stroke-miterlimit="10"/>
<path d="M97.105 30.6411V6.22314" stroke="#EDEDED" stroke-miterlimit="10"/>
<path d="M97.105 126.354V35.8643" stroke="#EDEDED" stroke-miterlimit="10"/>
<path d="M63.1548 126.354V105.984" stroke="#EDEDED" stroke-miterlimit="10"/>
<path d="M625.944 6.22314H5.70068V30.6411" stroke="#EDEDED" stroke-miterlimit="10"/>
<path d="M621.243 6.22314V30.6411" stroke="#EDEDED" stroke-miterlimit="10"/>
<path d="M510.252 35.8643V126.354" stroke="#EDEDED" stroke-miterlimit="10"/>
<path d="M510.252 104.809H621.243V126.354" stroke="#EDEDED" stroke-miterlimit="10"/>
<path d="M596.042 30.6411V6.22314" stroke="#EDEDED" stroke-miterlimit="10"/>
<path d="M596.042 104.809C595.911 104.026 595.911 35.8643 595.911 35.8643" stroke="#EDEDED" stroke-miterlimit="10"/>
<path d="M577.238 126.354V35.8643" stroke="#EDEDED" stroke-miterlimit="10"/>
<path d="M530.884 126.354V81.1747V35.8643" stroke="#EDEDED" stroke-miterlimit="10"/>
<path d="M544.594 126.354V35.8643" stroke="#EDEDED" stroke-miterlimit="10"/>
<path d="M497.325 30.6411V6.22314" stroke="#EDEDED" stroke-miterlimit="10"/>
<path d="M432.037 30.6411V6.22314" stroke="#EDEDED" stroke-miterlimit="10"/>
<path d="M394.169 30.6411V6.22314" stroke="#EDEDED" stroke-miterlimit="10"/>
<path d="M367.009 30.6411V6.22314" stroke="#EDEDED" stroke-miterlimit="10"/>
<path d="M240.61 30.6411V6.22314" stroke="#EDEDED" stroke-miterlimit="10"/>
<path d="M195.169 30.6411V6.22314" stroke="#EDEDED" stroke-miterlimit="10"/>
<path d="M130.402 30.6411V6.22314" stroke="#EDEDED" stroke-miterlimit="10"/>
</svg>
