<svg width="19" height="18" viewBox="0 0 19 18" fill="none" xmlns="http://www.w3.org/2000/svg">
<path d="M14.6467 12.2561V13.5437C14.6467 13.6807 14.5311 13.7916 14.3885 13.7916H13.26V14.8753C13.26 15.0123 13.1444 15.1233 13.0018 15.1233H11.661C11.5184 15.1233 11.4028 15.0123 11.4028 14.8753V13.7916H10.2517C10.1091 13.7916 9.99356 13.6807 9.99356 13.5437V12.2561C9.99356 12.1192 10.1091 12.0082 10.2517 12.0082H11.4028V10.9028C11.4028 10.7659 11.5184 10.6549 11.661 10.6549H13.0018C13.1444 10.6549 13.26 10.7659 13.26 10.9028V12.0082H14.3885C14.5311 12.0082 14.6467 12.1192 14.6467 12.2561ZM19 4.79328V7.92186C19 7.92186 18.9964 8.09138 18.984 8.12987C18.9341 8.2867 18.894 8.35692 18.6608 8.40504C18.6135 8.41466 18.4544 8.41998 18.4544 8.41998H17.8897V17.3057C17.8897 17.6884 17.5654 18 17.1667 18H1.83331C1.43484 18 1.11035 17.6886 1.11035 17.3057V8.41998H0.495691C0.495691 8.41998 0.349649 8.3991 0.322359 8.38825C0.199342 8.33932 0.120885 8.28424 0.0426401 8.14932C-4.13002e-08 8.07582 0 7.92227 0 7.92227V4.79984C0.002132 4.70136 0.0225993 4.61271 0.0609754 4.52938L1.80943 0.43097C1.92094 0.169112 2.1836 0 2.47824 0H16.5215C16.8162 0 17.0788 0.169112 17.1904 0.43097L18.9422 4.53675C18.9774 4.61271 18.9979 4.70156 19 4.79328ZM16.1521 0.595168L17.8607 4.80659H18.3804V4.80004C18.3802 4.79349 18.3775 4.781 18.3723 4.76974L16.6173 0.656589C16.6013 0.619327 16.5638 0.595168 16.5218 0.595168H16.1521ZM13.0526 0.595168L13.8828 4.80659H14.9313L13.9081 0.595168H13.0526ZM9.07339 0.595168L8.88065 4.80659H10.1198L9.92704 0.595168H9.07339ZM5.09165 0.595168L4.0685 4.80659H5.11702L5.94723 0.595168H5.09165ZM0.619561 4.80659H1.13934L2.84793 0.595168H2.47824C2.43603 0.595168 2.39851 0.619327 2.38273 0.656589C2.38273 0.656589 0.619774 4.79328 0.619561 4.80659ZM6.86932 9.89859C6.86932 9.67952 6.66337 9.50181 6.40923 9.50181H3.42528C3.17114 9.50181 2.96519 9.67952 2.96519 9.89859V17.2578H6.86932V9.89859ZM15.9408 9.89859C15.9408 9.67952 15.7557 9.50181 15.5276 9.50181H9.1124C8.88428 9.50181 8.69922 9.67952 8.69922 9.89859V15.8795C8.69922 16.0986 8.88428 16.2763 9.1124 16.2763H15.5278C15.7559 16.2763 15.941 16.0986 15.941 15.8795V9.89859H15.9408ZM18.3804 7.78264V5.75821H0.617216L0.612099 7.7808L1.8041 7.78366C2.05824 7.78366 2.26419 7.60595 2.26419 7.38688V6.45861H3.52079V7.38688C3.52079 7.60595 3.72674 7.78366 3.98088 7.78366H6.20904C6.46317 7.78366 6.66912 7.60595 6.66912 7.38688V6.45861H7.92573V7.38688C7.92573 7.60595 8.13168 7.78366 8.38581 7.78366H10.6138C10.8679 7.78366 11.0738 7.60595 11.0738 7.38688V6.45861H12.3304V7.38688C12.3304 7.60595 12.5364 7.78366 12.7905 7.78366H15.0187C15.2728 7.78366 15.4788 7.60595 15.4788 7.38688V6.45861H16.7354V7.38688C16.7354 7.60595 16.9413 7.78366 17.1955 7.78366L18.3804 7.78264Z" fill="#DDD9D3"/>
</svg>
