<?xml version="1.0" encoding="UTF-8" standalone="no"?>
<svg
   xmlns:dc="http://purl.org/dc/elements/1.1/"
   xmlns:cc="http://creativecommons.org/ns#"
   xmlns:rdf="http://www.w3.org/1999/02/22-rdf-syntax-ns#"
   xmlns:svg="http://www.w3.org/2000/svg"
   xmlns="http://www.w3.org/2000/svg"
   xmlns:sodipodi="http://sodipodi.sourceforge.net/DTD/sodipodi-0.dtd"
   xmlns:inkscape="http://www.inkscape.org/namespaces/inkscape"
   sodipodi:docname="pharmacy-m.svg"
   inkscape:version="1.0 (4035a4fb49, 2020-05-01)"
   id="svg8"
   version="1.1"
   viewBox="0 0 10.054166 10.054167"
   height="38"
   width="38">
  <defs
     id="defs2" />
  <sodipodi:namedview
     inkscape:window-maximized="1"
     inkscape:window-y="-8"
     inkscape:window-x="1432"
     inkscape:window-height="1017"
     inkscape:window-width="1920"
     fit-margin-bottom="0"
     fit-margin-right="0"
     fit-margin-left="0"
     fit-margin-top="0"
     units="px"
     showgrid="false"
     inkscape:document-rotation="0"
     inkscape:current-layer="layer1"
     inkscape:document-units="mm"
     inkscape:cy="28.878956"
     inkscape:cx="17.330866"
     inkscape:zoom="3.959798"
     inkscape:pageshadow="2"
     inkscape:pageopacity="0.0"
     borderopacity="1.0"
     bordercolor="#666666"
     pagecolor="#ffffff"
     id="base" />
  <metadata
     id="metadata5">
    <rdf:RDF>
      <cc:Work
         rdf:about="">
        <dc:format>image/svg+xml</dc:format>
        <dc:type
           rdf:resource="http://purl.org/dc/dcmitype/StillImage" />
        <dc:title></dc:title>
      </cc:Work>
    </rdf:RDF>
  </metadata>
  <g
     id="layer1"
     inkscape:groupmode="layer"
     inkscape:label="Layer 1">
    <rect
       y="0.06681738"
       x="0"
       height="9.9557896"
       width="10.22306"
       id="rect28"
       style="fill:#eb8271;fill-rule:evenodd;stroke-width:0.264583;fill-opacity:1" />
    <g
       transform="matrix(0.26458333,0,0,0.26458333,2.6982142,2.6246813)"
       id="g979"
       style="fill:#fffafa">
      <path
         style="fill:#fffafa"
         d="m 14.6467,12.2561 v 1.2876 c 0,0.137 -0.1156,0.2479 -0.2582,0.2479 H 13.26 v 1.0837 c 0,0.137 -0.1156,0.248 -0.2582,0.248 H 11.661 c -0.1426,0 -0.2582,-0.111 -0.2582,-0.248 v -1.0837 h -1.1511 c -0.1426,0 -0.25814,-0.1109 -0.25814,-0.2479 v -1.2876 c 0,-0.1369 0.11554,-0.2479 0.25814,-0.2479 h 1.1511 v -1.1054 c 0,-0.1369 0.1156,-0.2479 0.2582,-0.2479 h 1.3408 c 0.1426,0 0.2582,0.111 0.2582,0.2479 v 1.1054 h 1.1285 c 0.1426,0 0.2582,0.111 0.2582,0.2479 z M 19,4.79328 v 3.12858 c 0,0 -0.0036,0.16952 -0.016,0.20801 -0.0499,0.15683 -0.09,0.22705 -0.3232,0.27517 -0.0473,0.00962 -0.2064,0.01494 -0.2064,0.01494 H 17.8897 V 17.3057 C 17.8897,17.6884 17.5654,18 17.1667,18 H 1.83331 C 1.43484,18 1.11035,17.6886 1.11035,17.3057 V 8.41998 H 0.495691 c 0,0 -0.146042,-0.02088 -0.173332,-0.03173 C 0.199342,8.33932 0.120885,8.28424 0.0426401,8.14932 -4.13002e-8,8.07582 0,7.92227 0,7.92227 V 4.79984 C 0.002132,4.70136 0.0225993,4.61271 0.0609754,4.52938 L 1.80943,0.43097 C 1.92094,0.169112 2.1836,0 2.47824,0 H 16.5215 c 0.2947,0 0.5573,0.169112 0.6689,0.43097 l 1.7518,4.10578 C 18.9774,4.61271 18.9979,4.70156 19,4.79328 Z M 16.1521,0.595168 17.8607,4.80659 h 0.5197 V 4.80004 C 18.3802,4.79349 18.3775,4.781 18.3723,4.76974 L 16.6173,0.656589 C 16.6013,0.619327 16.5638,0.595168 16.5218,0.595168 Z m -3.0995,0 0.8302,4.211422 h 1.0485 L 13.9081,0.595168 Z m -3.97921,0 L 8.88065,4.80659 H 10.1198 L 9.92704,0.595168 Z m -3.98174,0 L 4.0685,4.80659 H 5.11702 L 5.94723,0.595168 Z M 0.619561,4.80659 H 1.13934 L 2.84793,0.595168 H 2.47824 c -0.04221,0 -0.07973,0.024159 -0.09551,0.061421 0,0 -1.762956,4.136691 -1.763169,4.150001 z m 6.249759,5.092 c 0,-0.21907 -0.20595,-0.39678 -0.46009,-0.39678 H 3.42528 c -0.25414,0 -0.46009,0.17771 -0.46009,0.39678 v 7.35921 h 3.90413 z m 9.07148,0 c 0,-0.21907 -0.1851,-0.39678 -0.4132,-0.39678 H 9.1124 c -0.22812,0 -0.41318,0.17771 -0.41318,0.39678 v 5.98091 c 0,0.2191 0.18506,0.3968 0.41318,0.3968 h 6.4154 c 0.2281,0 0.4132,-0.1777 0.4132,-0.3968 V 9.89859 Z M 18.3804,7.78264 V 5.75821 H 0.617216 L 0.612099,7.7808 1.8041,7.78366 c 0.25414,0 0.46009,-0.17771 0.46009,-0.39678 V 6.45861 h 1.2566 v 0.92827 c 0,0.21907 0.20595,0.39678 0.46009,0.39678 h 2.22816 c 0.25413,0 0.46008,-0.17771 0.46008,-0.39678 V 6.45861 h 1.25661 v 0.92827 c 0,0.21907 0.20595,0.39678 0.46008,0.39678 h 2.22799 c 0.2541,0 0.46,-0.17771 0.46,-0.39678 V 6.45861 h 1.2566 v 0.92827 c 0,0.21907 0.206,0.39678 0.4601,0.39678 h 2.2282 c 0.2541,0 0.4601,-0.17771 0.4601,-0.39678 V 6.45861 h 1.2566 v 0.92827 c 0,0.21907 0.2059,0.39678 0.4601,0.39678 z"
         fill="#ddd9d3"
         id="path968" />
    </g>
  </g>
</svg>
