<svg width="38" height="38" viewBox="0 0 38 38" fill="none" xmlns="http://www.w3.org/2000/svg">
<rect width="38" height="38" fill="#EB8271"/>
<path d="M17.156 22.726C16.1667 23.706 14.9627 24.196 13.544 24.196C12.1253 24.196 10.9213 23.706 9.932 22.726C8.952 21.7367 8.462 20.528 8.462 19.1C8.462 17.672 8.952 16.468 9.932 15.488C10.9213 14.4987 12.1253 14.004 13.544 14.004C14.9627 14.004 16.1667 14.4987 17.156 15.488C18.1453 16.468 18.64 17.672 18.64 19.1C18.64 20.528 18.1453 21.7367 17.156 22.726ZM11.29 21.41C11.8967 22.0073 12.648 22.306 13.544 22.306C14.44 22.306 15.1913 22.0073 15.798 21.41C16.4047 20.8033 16.708 20.0333 16.708 19.1C16.708 18.1667 16.4047 17.3967 15.798 16.79C15.1913 16.1833 14.44 15.88 13.544 15.88C12.648 15.88 11.8967 16.1833 11.29 16.79C10.6833 17.3967 10.38 18.1667 10.38 19.1C10.38 20.0333 10.6833 20.8033 11.29 21.41ZM28.7199 14.2V24H26.7879V16.048H23.3299V24H21.3979V14.2H28.7199Z" fill="white"/>
</svg>
