<svg width="14" height="19" viewBox="0 0 14 19" fill="none" xmlns="http://www.w3.org/2000/svg">
<path d="M13.9965 18.2475L13.3502 5.23666C13.3322 4.87466 13.0453 4.59075 12.6977 4.59075H10.7905V3.95139C10.7905 1.77258 9.08978 0 6.99944 0C4.90915 0 3.20869 1.77258 3.20869 3.95139V4.59075H1.30151C0.953733 4.59075 0.666831 4.87466 0.648824 5.23666L0.000867563 18.2836C-0.00835309 18.47 0.0562399 18.6524 0.179633 18.7878C0.302977 18.9232 0.474307 19 0.653507 19H13.3457C13.346 19 13.3463 19 13.3466 19C13.7075 19 14 18.695 14 18.3188C14 18.2947 13.9988 18.2709 13.9965 18.2475ZM4.13964 7.34779C3.7531 7.34779 3.43964 7.02106 3.43964 6.61815C3.43964 6.21524 3.7531 5.88851 4.13964 5.88851C4.52618 5.88851 4.83964 6.21524 4.83964 6.61815C4.83964 7.02106 4.52618 7.34779 4.13964 7.34779ZM8.84633 4.59075H5.15275V3.95139C5.15275 2.88988 5.98116 2.02639 6.99944 2.02639C8.01787 2.02639 8.84633 2.88988 8.84633 3.95139V4.59075ZM9.86031 7.34779C9.47377 7.34779 9.16031 7.02106 9.16031 6.61815C9.16031 6.21524 9.47377 5.88851 9.86031 5.88851C10.2469 5.88851 10.5603 6.21524 10.5603 6.61815C10.5603 7.02106 10.2469 7.34779 9.86031 7.34779Z" fill="#DDD9D3"/>
</svg>
