<?xml version="1.0" encoding="UTF-8" standalone="no"?>
<svg
   xmlns:dc="http://purl.org/dc/elements/1.1/"
   xmlns:cc="http://creativecommons.org/ns#"
   xmlns:rdf="http://www.w3.org/1999/02/22-rdf-syntax-ns#"
   xmlns:svg="http://www.w3.org/2000/svg"
   xmlns="http://www.w3.org/2000/svg"
   xmlns:sodipodi="http://sodipodi.sourceforge.net/DTD/sodipodi-0.dtd"
   xmlns:inkscape="http://www.inkscape.org/namespaces/inkscape"
   sodipodi:docname="shops-m.svg"
   inkscape:version="1.0 (4035a4fb49, 2020-05-01)"
   id="svg8"
   version="1.1"
   viewBox="0 0 10.054166 10.054167"
   height="38"
   width="38">
  <defs
     id="defs2" />
  <sodipodi:namedview
     inkscape:window-maximized="1"
     inkscape:window-y="-8"
     inkscape:window-x="1432"
     inkscape:window-height="1017"
     inkscape:window-width="1920"
     fit-margin-bottom="0"
     fit-margin-right="0"
     fit-margin-left="0"
     fit-margin-top="0"
     units="px"
     showgrid="false"
     inkscape:document-rotation="0"
     inkscape:current-layer="layer1"
     inkscape:document-units="mm"
     inkscape:cy="28.878956"
     inkscape:cx="17.330866"
     inkscape:zoom="3.959798"
     inkscape:pageshadow="2"
     inkscape:pageopacity="0.0"
     borderopacity="1.0"
     bordercolor="#666666"
     pagecolor="#ffffff"
     id="base" />
  <metadata
     id="metadata5">
    <rdf:RDF>
      <cc:Work
         rdf:about="">
        <dc:format>image/svg+xml</dc:format>
        <dc:type
           rdf:resource="http://purl.org/dc/dcmitype/StillImage" />
        <dc:title></dc:title>
      </cc:Work>
    </rdf:RDF>
  </metadata>
  <g
     id="layer1"
     inkscape:groupmode="layer"
     inkscape:label="Layer 1">
    <rect
       y="0.06681738"
       x="0"
       height="9.9557896"
       width="10.22306"
       id="rect28"
       style="fill:#eb8271;fill-rule:evenodd;stroke-width:0.264583;fill-opacity:1" />
    <g
       transform="matrix(0.26458333,0,0,0.26458333,3.2260377,2.4309446)"
       id="g992"
       style="fill:#fffafa">
      <path
         style="fill:#fffafa"
         d="M 13.9965,18.2475 13.3502,5.23666 C 13.3322,4.87466 13.0453,4.59075 12.6977,4.59075 H 10.7905 V 3.95139 C 10.7905,1.77258 9.08978,0 6.99944,0 4.90915,0 3.20869,1.77258 3.20869,3.95139 V 4.59075 H 1.30151 c -0.347777,0 -0.634679,0.28391 -0.652686,0.64591 L 8.67563e-4,18.2836 C -0.00835309,18.47 0.0562399,18.6524 0.179633,18.7878 0.302977,18.9232 0.474307,19 0.653507,19 H 13.3457 c 3e-4,0 6e-4,0 9e-4,0 C 13.7075,19 14,18.695 14,18.3188 14,18.2947 13.9988,18.2709 13.9965,18.2475 Z M 4.13964,7.34779 c -0.38654,0 -0.7,-0.32673 -0.7,-0.72964 0,-0.40291 0.31346,-0.72964 0.7,-0.72964 0.38654,0 0.7,0.32673 0.7,0.72964 0,0.40291 -0.31346,0.72964 -0.7,0.72964 z M 8.84633,4.59075 H 5.15275 V 3.95139 c 0,-1.06151 0.82841,-1.925 1.84669,-1.925 1.01843,0 1.84689,0.86349 1.84689,1.925 z m 1.01398,2.75704 c -0.38654,0 -0.7,-0.32673 -0.7,-0.72964 0,-0.40291 0.31346,-0.72964 0.7,-0.72964 0.38659,0 0.69999,0.32673 0.69999,0.72964 0,0.40291 -0.3134,0.72964 -0.69999,0.72964 z"
         fill="#ddd9d3"
         id="path981" />
    </g>
  </g>
</svg>
