<?xml version="1.0" encoding="UTF-8" standalone="no"?>
<svg
   xmlns:dc="http://purl.org/dc/elements/1.1/"
   xmlns:cc="http://creativecommons.org/ns#"
   xmlns:rdf="http://www.w3.org/1999/02/22-rdf-syntax-ns#"
   xmlns:svg="http://www.w3.org/2000/svg"
   xmlns="http://www.w3.org/2000/svg"
   xmlns:sodipodi="http://sodipodi.sourceforge.net/DTD/sodipodi-0.dtd"
   xmlns:inkscape="http://www.inkscape.org/namespaces/inkscape"
   sodipodi:docname="stadium-m.svg"
   inkscape:version="1.0 (4035a4fb49, 2020-05-01)"
   id="svg8"
   version="1.1"
   viewBox="0 0 10.054166 10.054167"
   height="38"
   width="38">
  <defs
     id="defs2" />
  <sodipodi:namedview
     inkscape:window-maximized="1"
     inkscape:window-y="-8"
     inkscape:window-x="1432"
     inkscape:window-height="1017"
     inkscape:window-width="1920"
     fit-margin-bottom="0"
     fit-margin-right="0"
     fit-margin-left="0"
     fit-margin-top="0"
     units="px"
     showgrid="false"
     inkscape:document-rotation="0"
     inkscape:current-layer="layer1"
     inkscape:document-units="mm"
     inkscape:cy="28.878956"
     inkscape:cx="17.330866"
     inkscape:zoom="3.959798"
     inkscape:pageshadow="2"
     inkscape:pageopacity="0.0"
     borderopacity="1.0"
     bordercolor="#666666"
     pagecolor="#ffffff"
     id="base" />
  <metadata
     id="metadata5">
    <rdf:RDF>
      <cc:Work
         rdf:about="">
        <dc:format>image/svg+xml</dc:format>
        <dc:type
           rdf:resource="http://purl.org/dc/dcmitype/StillImage" />
        <dc:title></dc:title>
      </cc:Work>
    </rdf:RDF>
  </metadata>
  <g
     id="layer1"
     inkscape:groupmode="layer"
     inkscape:label="Layer 1">
    <rect
       y="0.06681738"
       x="0"
       height="9.9557896"
       width="10.22306"
       id="rect28"
       style="fill:#eb8271;fill-rule:evenodd;stroke-width:0.264583;fill-opacity:1" />
    <g
       transform="matrix(0.26458333,0,0,0.26458333,2.2076829,2.9646525)"
       id="g1020"
       style="fill:#fffafa">
      <path
         style="fill:#fffafa"
         fill-rule="evenodd"
         clip-rule="evenodd"
         d="M 0.898147,0.622096 C 1.03891,0.530001 1.17537,0.431355 1.32006,0.346934 1.7197,0.114264 2.15528,0.00438626 2.61613,0.00438623 c 2.55245,-0.00149749 5.10546,-1.8764e-4 7.65807,3.7393e-4 0.0315,0 0.0654,0.00617724 0.0654,0.00617724 0,1.4510526 0,2.8935026 -2e-4,4.3619726 -1.13062,0.15798 -2.07722,0.71935 -2.75108,1.70431 -0.49473,0.7231 -0.69633,1.53417 -0.64691,2.4102 0.09415,1.66018 1.35615,3.32268 3.40129,3.60948 0,1.4466 2e-4,2.8896 2e-4,4.3601 -0.0449,0.0011 -0.1301,0.0043 -0.216,0.0045 -2.43114,7e-4 -4.86267,-0.0026 -7.2942,0.0034 C 2.15022,16.4667 1.51754,16.3391 0.985935,15.8782 0.963472,15.8588 0.927535,15.8546 0.898334,15.8434 0.806801,15.7519 0.715266,15.6603 0.62392,15.569 -0.228894,14.5481 0.0599334,13.3286 0.0050883,12.1237 1.17518,12.1317 2.31738,12.1396 3.40118,12.1471 3.40099,9.52217 3.40099,6.92854 3.40118,4.3044 2.30353,4.30514 1.16769,4.30589 0.0524455,4.30664 0.0412145,3.6762 0.0176294,3.04801 0.0245553,2.42075 0.0294221,1.98499 0.179544,1.58292 0.412215,1.21435 0.480537,1.10672 0.55354,1.00227 0.624108,0.896134 0.715454,0.804788 0.806801,0.713442 0.898147,0.622096 Z"
         fill="#ddd9d3"
         id="path994" />
      <path
         style="fill:#fffafa"
         fill-rule="evenodd"
         clip-rule="evenodd"
         d="M 21.0562,0.895501 C 21.123,0.994148 21.1928,1.0913 21.2565,1.192 21.4845,1.55289 21.6456,1.94542 21.6514,2.37239 21.6608,3.00994 21.6323,3.64787 21.62,4.2813 20.5167,4.28018 19.3743,4.27924 18.2619,4.27793 c 2e-4,2.64923 4e-4,5.2393 4e-4,7.83667 1.0965,-0.003 2.2385,-0.0062 3.4355,-0.0097 -0.0295,0.8023 0.0117,1.5603 -0.101,2.2945 -0.1739,1.1326 -1.1829,1.969 -2.3297,2.0504 -0.1369,0.0096 -0.2745,0.0116 -0.4117,0.0114 -2.4242,6e-4 -4.848,4e-4 -7.2721,0.0012 -0.0883,3e-4 -0.1769,0.0144 -0.2278,0.0185 -2e-4,-1.4737 -2e-4,-2.9147 -2e-4,-4.3904 C 12.491,11.9297 13.4531,11.352 14.1272,10.332 14.611,9.5996 14.801,8.78403 14.7344,7.91025 14.6073,6.25273 13.3382,4.64856 11.3465,4.36928 11.346,2.92253 11.3454,1.48027 11.3452,0.00918136 11.3797,0.00843262 11.4648,0.00412785 11.5498,0.00375348 13.9982,0.00337905 16.4464,0.00543745 18.8946,9.03583e-6 19.5615,-0.00130128 20.1753,0.139649 20.6938,0.585149 c 0.0228,0.019467 0.0584,0.024334 0.0881,0.036126 0.0912,0.091159 0.1829,0.18288 0.2743,0.274226 z"
         fill="#ddd9d3"
         id="path996" />
      <path
         style="fill:#fffafa"
         fill-rule="evenodd"
         clip-rule="evenodd"
         d="m 21.6079,11.238 c -0.8135,0 -1.6605,2e-4 -2.4946,6e-4 0,-1.99991 2e-4,-4.00934 2e-4,-6.01297 0.8328,0.00169 1.6788,0.00318 2.4979,0.00506 -0.0013,1.98958 -0.0024,3.9962 -0.0035,6.00731 z"
         fill="#ddd9d3"
         id="path998" />
      <path
         style="fill:#fffafa"
         fill-rule="evenodd"
         clip-rule="evenodd"
         d="m 11.3093,5.27065 c 1.4282,0.15162 2.6045,1.57198 2.5562,3.05635 -0.0511,1.56655 -1.3606,2.7593 -2.5562,2.8557 -2e-4,-1.96638 0,-3.93351 0,-5.91205 z"
         fill="#ddd9d3"
         id="path1000" />
      <path
         style="fill:#fffafa"
         fill-rule="evenodd"
         clip-rule="evenodd"
         d="m 10.3615,5.28015 c 2e-4,1.96562 9e-4,3.93294 9e-4,5.89835 C 9.22189,11.1106 7.85601,9.91765 7.81352,8.31142 7.77046,6.69788 9.07364,5.40406 10.3615,5.28015 Z"
         fill="#ddd9d3"
         id="path1002" />
      <path
         style="fill:#fffafa"
         fill-rule="evenodd"
         clip-rule="evenodd"
         d="M 2.57407,5.23337 C 2.57314,7.23382 2.57239,9.2352 2.57145,11.2192 1.73155,11.2186 0.880612,11.2175 0.0517578,11.2171 0.051945,9.23538 0.0517572,7.22783 0.0519444,5.22963 0.877055,5.23038 1.72294,5.23169 2.57407,5.23337 Z"
         fill="#ddd9d3"
         id="path1004" />
    </g>
  </g>
</svg>
