<svg width="22" height="17" viewBox="0 0 22 17" fill="none" xmlns="http://www.w3.org/2000/svg">
<path fill-rule="evenodd" clip-rule="evenodd" d="M0.898147 0.622096C1.03891 0.530001 1.17537 0.431355 1.32006 0.346934C1.7197 0.114264 2.15528 0.00438626 2.61613 0.00438623C5.16858 0.00288874 7.72159 0.00419859 10.2742 0.00476016C10.3057 0.00476016 10.3396 0.0109374 10.3396 0.0109374C10.3396 1.46199 10.3396 2.90444 10.3394 4.37291C9.20878 4.53089 8.26218 5.09226 7.58832 6.07722C7.09359 6.80032 6.89199 7.61139 6.94141 8.48742C7.03556 10.1476 8.29756 11.8101 10.3427 12.0969C10.3427 13.5435 10.3429 14.9865 10.3429 16.457C10.298 16.4581 10.2128 16.4613 10.1269 16.4615C7.69576 16.4622 5.26423 16.4589 2.8327 16.4649C2.15022 16.4667 1.51754 16.3391 0.985935 15.8782C0.963472 15.8588 0.927535 15.8546 0.898334 15.8434C0.806801 15.7519 0.715266 15.6603 0.62392 15.569C-0.228894 14.5481 0.0599334 13.3286 0.0050883 12.1237C1.17518 12.1317 2.31738 12.1396 3.40118 12.1471C3.40099 9.52217 3.40099 6.92854 3.40118 4.3044C2.30353 4.30514 1.16769 4.30589 0.0524455 4.30664C0.0412145 3.6762 0.0176294 3.04801 0.0245553 2.42075C0.0294221 1.98499 0.179544 1.58292 0.412215 1.21435C0.480537 1.10672 0.55354 1.00227 0.624108 0.896134C0.715454 0.804788 0.806801 0.713442 0.898147 0.622096Z" fill="#DDD9D3"/>
<path fill-rule="evenodd" clip-rule="evenodd" d="M21.0562 0.895501C21.123 0.994148 21.1928 1.0913 21.2565 1.192C21.4845 1.55289 21.6456 1.94542 21.6514 2.37239C21.6608 3.00994 21.6323 3.64787 21.62 4.2813C20.5167 4.28018 19.3743 4.27924 18.2619 4.27793C18.2621 6.92716 18.2623 9.51723 18.2623 12.1146C19.3588 12.1116 20.5008 12.1084 21.6978 12.1049C21.6683 12.9072 21.7095 13.6652 21.5968 14.3994C21.4229 15.532 20.4139 16.3684 19.2671 16.4498C19.1302 16.4594 18.9926 16.4614 18.8554 16.4612C16.4312 16.4618 14.0074 16.4616 11.5833 16.4624C11.495 16.4627 11.4064 16.4768 11.3555 16.4809C11.3553 15.0072 11.3553 13.5662 11.3553 12.0905C12.491 11.9297 13.4531 11.352 14.1272 10.332C14.611 9.5996 14.801 8.78403 14.7344 7.91025C14.6073 6.25273 13.3382 4.64856 11.3465 4.36928C11.346 2.92253 11.3454 1.48027 11.3452 0.00918136C11.3797 0.00843262 11.4648 0.00412785 11.5498 0.00375348C13.9982 0.00337905 16.4464 0.00543745 18.8946 9.03583e-06C19.5615 -0.00130128 20.1753 0.139649 20.6938 0.585149C20.7166 0.604616 20.7522 0.609483 20.7819 0.621275C20.8731 0.712434 20.9648 0.804155 21.0562 0.895501Z" fill="#DDD9D3"/>
<path fill-rule="evenodd" clip-rule="evenodd" d="M21.6079 11.238C20.7944 11.238 19.9474 11.2382 19.1133 11.2386C19.1133 9.23869 19.1135 7.22926 19.1135 5.22563C19.9463 5.22732 20.7923 5.22881 21.6114 5.23069C21.6101 7.22027 21.609 9.22689 21.6079 11.238Z" fill="#DDD9D3"/>
<path fill-rule="evenodd" clip-rule="evenodd" d="M11.3093 5.27065C12.7375 5.42227 13.9138 6.84263 13.8655 8.327C13.8144 9.89355 12.5049 11.0863 11.3093 11.1827C11.3091 9.21632 11.3093 7.24919 11.3093 5.27065Z" fill="#DDD9D3"/>
<path fill-rule="evenodd" clip-rule="evenodd" d="M10.3615 5.28015C10.3617 7.24577 10.3624 9.21309 10.3624 11.1785C9.22189 11.1106 7.85601 9.91765 7.81352 8.31142C7.77046 6.69788 9.07364 5.40406 10.3615 5.28015Z" fill="#DDD9D3"/>
<path fill-rule="evenodd" clip-rule="evenodd" d="M2.57407 5.23337C2.57314 7.23382 2.57239 9.2352 2.57145 11.2192C1.73155 11.2186 0.880612 11.2175 0.0517578 11.2171C0.051945 9.23538 0.0517572 7.22783 0.0519444 5.22963C0.877055 5.23038 1.72294 5.23169 2.57407 5.23337Z" fill="#DDD9D3"/>
</svg>
