<svg width="18" height="18" viewBox="0 0 18 18" fill="none" xmlns="http://www.w3.org/2000/svg">
<path d="M13 15.9599C12.994 16.2256 13.0412 16.4898 13.139 16.737C13.2367 16.9842 13.383 17.2094 13.5692 17.3995C13.7554 17.5895 13.9778 17.7405 14.2233 17.8437C14.4689 17.9468 14.7326 17.9999 14.999 18C15.2654 18.0001 15.5291 17.947 15.7747 17.844C16.0203 17.741 16.2428 17.5901 16.4291 17.4002C16.6154 17.2102 16.7618 16.9851 16.8596 16.7379C16.9575 16.4908 17.0049 16.2266 16.999 15.9609C16.9874 15.4397 16.7718 14.9436 16.3982 14.579C16.0245 14.2144 15.5227 14.0102 15 14.01C14.4773 14.0099 13.9753 14.2139 13.6015 14.5783C13.2277 14.9427 13.0118 15.4387 13 15.9599ZM3 15.9599C3 16.489 3.21071 16.9964 3.58579 17.3706C3.96086 17.7447 4.46957 17.9549 5 17.9549C5.53043 17.9549 6.03914 17.7447 6.41421 17.3706C6.78929 16.9964 7 16.489 7 15.9599C7 15.4308 6.78929 14.9234 6.41421 14.5492C6.03914 14.1751 5.53043 13.9649 5 13.9649C4.46957 13.9649 3.96086 14.1751 3.58579 14.5492C3.21071 14.9234 3 15.4308 3 15.9599ZM6.547 11.144L17.615 7.98993C17.7232 7.95393 17.818 7.88603 17.8867 7.7952C17.9554 7.70438 17.9949 7.59489 18 7.48121V1.99499H4V0.398998C4 0.179549 3.819 0 3.601 0H0.399C0.293168 0.000526199 0.191836 0.042764 0.117094 0.117505C0.0423526 0.192246 0.000262608 0.29343 0 0.398998L0 1.99499H2L3.91 10.9295L4 11.8702V13.5151C4 13.7335 4.18 13.914 4.4 13.914H17.6C17.82 13.914 18 13.7325 18 13.5151V11.9699H6.752C5.602 11.9699 5.578 11.4203 6.547 11.144Z" fill="#DDD9D3"/>
</svg>
