<?xml version="1.0" encoding="UTF-8" standalone="no"?>
<svg
   xmlns:dc="http://purl.org/dc/elements/1.1/"
   xmlns:cc="http://creativecommons.org/ns#"
   xmlns:rdf="http://www.w3.org/1999/02/22-rdf-syntax-ns#"
   xmlns:svg="http://www.w3.org/2000/svg"
   xmlns="http://www.w3.org/2000/svg"
   xmlns:sodipodi="http://sodipodi.sourceforge.net/DTD/sodipodi-0.dtd"
   xmlns:inkscape="http://www.inkscape.org/namespaces/inkscape"
   sodipodi:docname="supermarket-m.svg"
   inkscape:version="1.0 (4035a4fb49, 2020-05-01)"
   id="svg8"
   version="1.1"
   viewBox="0 0 10.054166 10.054167"
   height="38"
   width="38">
  <defs
     id="defs2" />
  <sodipodi:namedview
     inkscape:window-maximized="1"
     inkscape:window-y="-8"
     inkscape:window-x="1432"
     inkscape:window-height="1017"
     inkscape:window-width="1920"
     fit-margin-bottom="0"
     fit-margin-right="0"
     fit-margin-left="0"
     fit-margin-top="0"
     units="px"
     showgrid="false"
     inkscape:document-rotation="0"
     inkscape:current-layer="g1033"
     inkscape:document-units="mm"
     inkscape:cy="28.878956"
     inkscape:cx="17.330866"
     inkscape:zoom="3.959798"
     inkscape:pageshadow="2"
     inkscape:pageopacity="0.0"
     borderopacity="1.0"
     bordercolor="#666666"
     pagecolor="#ffffff"
     id="base" />
  <metadata
     id="metadata5">
    <rdf:RDF>
      <cc:Work
         rdf:about="">
        <dc:format>image/svg+xml</dc:format>
        <dc:type
           rdf:resource="http://purl.org/dc/dcmitype/StillImage" />
        <dc:title></dc:title>
      </cc:Work>
    </rdf:RDF>
  </metadata>
  <g
     id="layer1"
     inkscape:groupmode="layer"
     inkscape:label="Layer 1">
    <rect
       y="0.06681738"
       x="0"
       height="9.9557896"
       width="10.22306"
       id="rect28"
       style="fill:#eb8271;fill-rule:evenodd;stroke-width:0.264583;fill-opacity:1" />
    <g
       transform="matrix(0.26458333,0,0,0.26458333,2.6300532,2.7636884)"
       id="g1033"
       style="fill:#fff5ee">
      <path
         style="fill:#ffffff;fill-opacity:1"
         d="m 13,15.9599 c -0.006,0.2657 0.0412,0.5299 0.139,0.7771 0.0977,0.2472 0.244,0.4724 0.4302,0.6625 0.1862,0.19 0.4086,0.341 0.6541,0.4442 0.2456,0.1031 0.5093,0.1562 0.7757,0.1563 0.2664,10e-5 0.5301,-0.053 0.7757,-0.156 0.2456,-0.103 0.4681,-0.2539 0.6544,-0.4438 0.1863,-0.19 0.3327,-0.4151 0.4305,-0.6623 0.0979,-0.2471 0.1453,-0.5113 0.1394,-0.777 C 16.9874,15.4397 16.7718,14.9436 16.3982,14.579 16.0245,14.2144 15.5227,14.0102 15,14.01 14.4773,14.0099 13.9753,14.2139 13.6015,14.5783 13.2277,14.9427 13.0118,15.4387 13,15.9599 Z m -10,0 c 0,0.5291 0.21071,1.0365 0.58579,1.4107 0.37507,0.3741 0.88378,0.5843 1.41421,0.5843 0.53043,0 1.03914,-0.2102 1.41421,-0.5843 C 6.78929,16.9964 7,16.489 7,15.9599 7,15.4308 6.78929,14.9234 6.41421,14.5492 6.03914,14.1751 5.53043,13.9649 5,13.9649 c -0.53043,0 -1.03914,0.2102 -1.41421,0.5843 C 3.21071,14.9234 3,15.4308 3,15.9599 Z M 6.547,11.144 17.615,7.98993 C 17.7232,7.95393 17.818,7.88603 17.8867,7.7952 17.9554,7.70438 17.9949,7.59489 18,7.48121 V 1.99499 H 4 V 0.398998 C 4,0.179549 3.819,0 3.601,0 H 0.399 C 0.293168,5.26199e-4 0.191836,0.042764 0.117094,0.117505 0.0423526,0.192246 2.62608e-4,0.29343 0,0.398998 V 1.99499 H 2 L 3.91,10.9295 4,11.8702 v 1.6449 c 0,0.2184 0.18,0.3989 0.4,0.3989 h 13.2 c 0.22,0 0.4,-0.1815 0.4,-0.3989 V 11.9699 H 6.752 c -1.15,0 -1.174,-0.5496 -0.205,-0.8259 z"
         fill="#ddd9d3"
         id="path1022" />
    </g>
  </g>
</svg>
