<svg width="15" height="21" viewBox="0 0 15 21" fill="none" xmlns="http://www.w3.org/2000/svg">
<path d="M3.79743 0C3.65057 0 3.53199 0.106488 3.53199 0.238436V1.08983H1.70628C1.4024 1.08983 1.15772 1.32515 1.15772 1.61726V13.068C1.15773 14.6853 3.58229 15.9876 6.59398 15.9876H8.4058C11.4175 15.9876 13.8421 14.6853 13.8421 13.068V1.61726C13.8421 1.32517 13.5974 1.08983 13.2935 1.08983H11.4678V0.238436C11.4678 0.106481 11.3492 0 11.2024 0H3.79743ZM5.34593 0.868243C5.45029 0.868226 5.55038 0.910759 5.62422 0.986495C5.69805 1.06223 5.73958 1.16497 5.73967 1.27213C5.73968 1.32523 5.7295 1.37781 5.70971 1.42686C5.68993 1.47592 5.66093 1.5205 5.62436 1.55804C5.5878 1.59559 5.54439 1.62537 5.49661 1.64568C5.44884 1.666 5.39763 1.67645 5.34593 1.67644C5.24156 1.67635 5.14151 1.63371 5.06775 1.55789C4.994 1.48208 4.95258 1.37929 4.95259 1.27213C4.95269 1.16504 4.99415 1.06237 5.0679 0.986643C5.14164 0.91092 5.24164 0.868337 5.34593 0.868243ZM9.65358 0.868243C9.75794 0.868226 9.85804 0.910759 9.93187 0.986495C10.0057 1.06223 10.0472 1.16497 10.0473 1.27213C10.0473 1.32523 10.0371 1.37781 10.0174 1.42686C9.99758 1.47592 9.96858 1.5205 9.93201 1.55804C9.89545 1.59559 9.85204 1.62537 9.80427 1.64568C9.75649 1.666 9.70529 1.67645 9.65358 1.67644C9.54922 1.67635 9.44916 1.63371 9.37541 1.55789C9.30165 1.48208 9.26023 1.37929 9.26025 1.27213C9.26034 1.16504 9.30181 1.06237 9.37555 0.986643C9.4493 0.91092 9.54929 0.868337 9.65358 0.868243ZM2.54552 2.56888H12.451C12.6296 2.56888 12.7731 2.70502 12.7732 2.87428L12.7766 7.37363V8.84877C12.7766 10.2904 10.4237 11.4514 7.50141 11.4514C4.5791 11.4514 2.22669 10.2906 2.22669 8.84877V7.37363C2.24377 5.57542 2.22333 4.64094 2.22333 2.87428C2.22333 2.70501 2.36707 2.56888 2.54556 2.56888H2.54552ZM0.424088 3.50062C0.309989 3.50245 0.201258 3.55069 0.121757 3.63475C0.0422568 3.71881 -0.00151689 3.83182 4.30805e-05 3.94898V6.64054C-0.000764194 6.69916 0.0097813 6.75735 0.031067 6.81174C0.0523527 6.86613 0.0839542 6.91564 0.124035 6.95738C0.164115 6.99913 0.211875 7.03227 0.264539 7.0549C0.317203 7.07752 0.373721 7.08917 0.430808 7.08917C0.487895 7.08917 0.544413 7.07752 0.597078 7.0549C0.649742 7.03227 0.697502 6.99913 0.737582 6.95738C0.777662 6.91564 0.809264 6.86613 0.830549 6.81174C0.851835 6.75735 0.862381 6.69916 0.861573 6.64054V3.94898C0.862361 3.88981 0.851577 3.83107 0.82986 3.77625C0.808143 3.72143 0.775934 3.67164 0.73514 3.62983C0.694346 3.58802 0.645798 3.55505 0.592369 3.53285C0.53894 3.51066 0.481717 3.4997 0.424088 3.50062ZM14.5629 3.50062C14.4487 3.50234 14.3399 3.55053 14.2603 3.6346C14.1807 3.71867 14.1369 3.83175 14.1384 3.94898V6.64054C14.1376 6.69916 14.1482 6.75735 14.1695 6.81174C14.1907 6.86613 14.2223 6.91564 14.2624 6.95738C14.3025 6.99913 14.3503 7.03227 14.4029 7.0549C14.4556 7.07752 14.5121 7.08917 14.5692 7.08917C14.6263 7.08917 14.6828 7.07752 14.7355 7.0549C14.7881 7.03227 14.8359 6.99913 14.876 6.95738C14.916 6.91564 14.9476 6.86613 14.9689 6.81174C14.9902 6.75735 15.0008 6.69916 15 6.64054V3.94898C15.0007 3.88984 14.99 3.83114 14.9683 3.77635C14.9466 3.72156 14.9144 3.67179 14.8737 3.62999C14.8329 3.58818 14.7844 3.5552 14.731 3.53298C14.6777 3.51076 14.6205 3.49975 14.5629 3.50062ZM5.17651 13.1453H9.82317C9.955 13.1453 10.0613 13.2474 10.0613 13.3743V13.5738C10.0613 13.7008 9.95501 13.8028 9.82317 13.8028H5.17651C5.04467 13.8028 4.93883 13.7008 4.93883 13.5738V13.3743C4.93883 13.2474 5.04468 13.1453 5.17651 13.1453ZM11.9298 15.6456C11.8588 15.6444 11.7885 15.6614 11.7254 15.6948C11.6622 15.7283 11.6081 15.7773 11.5679 15.8375C11.5276 15.8977 11.5025 15.9671 11.4948 16.0397C11.487 16.1123 11.4969 16.1857 11.5235 16.2533L11.7851 16.9479H3.2047L3.46635 16.2533C3.49332 16.1846 3.50307 16.1101 3.49468 16.0365C3.48629 15.9629 3.46004 15.8927 3.41833 15.8322C3.37663 15.7718 3.32081 15.723 3.25599 15.6905C3.19117 15.658 3.11944 15.6427 3.04736 15.646C2.96287 15.65 2.88139 15.6795 2.8131 15.7307C2.7448 15.7819 2.6927 15.8527 2.66329 15.9341L0.985656 20.3841C0.96431 20.4385 0.953699 20.4967 0.954439 20.5553C0.955179 20.6139 0.967256 20.6718 0.989968 20.7256C1.01268 20.7793 1.04557 20.828 1.08674 20.8686C1.1279 20.9092 1.17652 20.941 1.22975 20.9621C1.28299 20.9833 1.33979 20.9934 1.39686 20.9918C1.45392 20.9902 1.51011 20.977 1.56216 20.9529C1.6142 20.9288 1.66107 20.8944 1.70004 20.8515C1.739 20.8087 1.76929 20.7583 1.78914 20.7034L2.03776 20.0442H12.9525L13.2011 20.7034C13.2201 20.7594 13.25 20.8109 13.2888 20.8549C13.3276 20.8988 13.3747 20.9343 13.4272 20.9592C13.4796 20.9841 13.5364 20.9979 13.5942 20.9998C13.6519 21.0017 13.7095 20.9916 13.7634 20.9702C13.8173 20.9487 13.8664 20.9164 13.9079 20.8751C13.9494 20.8337 13.9823 20.7843 14.0048 20.7296C14.0273 20.6749 14.0388 20.6161 14.0387 20.5568C14.0386 20.4975 14.0268 20.4387 14.0042 20.3841L12.327 15.9341C12.2968 15.8505 12.2427 15.7783 12.1719 15.7268C12.101 15.6753 12.0166 15.647 11.9298 15.6456V15.6456ZM2.87105 17.8326H12.1187L12.6189 19.1596H2.371L2.87105 17.8326Z" fill="#DDD9D3"/>
</svg>
