<?xml version="1.0" encoding="UTF-8" standalone="no"?>
<svg
   xmlns:dc="http://purl.org/dc/elements/1.1/"
   xmlns:cc="http://creativecommons.org/ns#"
   xmlns:rdf="http://www.w3.org/1999/02/22-rdf-syntax-ns#"
   xmlns:svg="http://www.w3.org/2000/svg"
   xmlns="http://www.w3.org/2000/svg"
   xmlns:sodipodi="http://sodipodi.sourceforge.net/DTD/sodipodi-0.dtd"
   xmlns:inkscape="http://www.inkscape.org/namespaces/inkscape"
   sodipodi:docname="train-m.svg"
   inkscape:version="1.0 (4035a4fb49, 2020-05-01)"
   id="svg8"
   version="1.1"
   viewBox="0 0 10.054166 10.054167"
   height="38"
   width="38">
  <defs
     id="defs2" />
  <sodipodi:namedview
     inkscape:window-maximized="1"
     inkscape:window-y="-8"
     inkscape:window-x="1432"
     inkscape:window-height="1017"
     inkscape:window-width="1920"
     fit-margin-bottom="0"
     fit-margin-right="0"
     fit-margin-left="0"
     fit-margin-top="0"
     units="px"
     showgrid="false"
     inkscape:document-rotation="0"
     inkscape:current-layer="g1033"
     inkscape:document-units="mm"
     inkscape:cy="28.878956"
     inkscape:cx="17.330866"
     inkscape:zoom="3.959798"
     inkscape:pageshadow="2"
     inkscape:pageopacity="0.0"
     borderopacity="1.0"
     bordercolor="#666666"
     pagecolor="#ffffff"
     id="base" />
  <metadata
     id="metadata5">
    <rdf:RDF>
      <cc:Work
         rdf:about="">
        <dc:format>image/svg+xml</dc:format>
        <dc:type
           rdf:resource="http://purl.org/dc/dcmitype/StillImage" />
        <dc:title></dc:title>
      </cc:Work>
    </rdf:RDF>
  </metadata>
  <g
     id="layer1"
     inkscape:groupmode="layer"
     inkscape:label="Layer 1">
    <rect
       y="0.06681738"
       x="0"
       height="9.9557896"
       width="10.22306"
       id="rect28"
       style="fill:#eb8271;fill-rule:evenodd;stroke-width:0.264583;fill-opacity:1" />
    <g
       transform="matrix(0.26458333,0,0,0.26458333,2.6300532,2.7636884)"
       id="g1033"
       style="fill:#fff5ee">
      <g
         transform="translate(2.0050565,-2.5101652)"
         id="g1046"
         style="fill:#ffffff">
        <path
           style="fill:#ffffff"
           d="M 3.79743,0 C 3.65057,0 3.53199,0.106488 3.53199,0.238436 V 1.08983 H 1.70628 c -0.30388,0 -0.54856,0.23532 -0.54856,0.52743 V 13.068 c 10e-6,1.6173 2.42457,2.9196 5.43626,2.9196 H 8.4058 c 3.0117,0 5.4363,-1.3023 5.4363,-2.9196 V 1.61726 c 0,-0.29209 -0.2447,-0.52743 -0.5486,-0.52743 H 11.4678 V 0.238436 C 11.4678,0.106481 11.3492,0 11.2024,0 Z m 1.5485,0.868243 C 5.45029,0.868226 5.55038,0.910759 5.62422,0.986495 5.69805,1.06223 5.73958,1.16497 5.73967,1.27213 5.73968,1.32523 5.7295,1.37781 5.70971,1.42686 5.68993,1.47592 5.66093,1.5205 5.62436,1.55804 5.5878,1.59559 5.54439,1.62537 5.49661,1.64568 5.44884,1.666 5.39763,1.67645 5.34593,1.67644 5.24156,1.67635 5.14151,1.63371 5.06775,1.55789 4.994,1.48208 4.95258,1.37929 4.95259,1.27213 4.95269,1.16504 4.99415,1.06237 5.0679,0.986643 5.14164,0.91092 5.24164,0.868337 5.34593,0.868243 Z m 4.30765,0 c 0.10436,-1.7e-5 0.20446,0.042516 0.27829,0.118252 0.07383,0.075735 0.11533,0.178475 0.11543,0.285635 0,0.0531 -0.0102,0.10568 -0.0299,0.15473 C 9.99758,1.47592 9.96858,1.5205 9.93201,1.55804 9.89545,1.59559 9.85204,1.62537 9.80427,1.64568 9.75649,1.666 9.70529,1.67645 9.65358,1.67644 9.54922,1.67635 9.44916,1.63371 9.37541,1.55789 9.30165,1.48208 9.26023,1.37929 9.26025,1.27213 9.26034,1.16504 9.30181,1.06237 9.37555,0.986643 9.4493,0.91092 9.54929,0.868337 9.65358,0.868243 Z M 2.54552,2.56888 H 12.451 c 0.1786,0 0.3221,0.13614 0.3222,0.3054 l 0.0034,4.49935 v 1.47514 c 0,1.44163 -2.3529,2.60263 -5.27519,2.60263 -2.92231,0 -5.27472,-1.1608 -5.27472,-2.60263 V 7.37363 C 2.24377,5.57542 2.22333,4.64094 2.22333,2.87428 c 0,-0.16927 0.14374,-0.3054 0.32223,-0.3054 z M 0.424088,3.50062 C 0.309989,3.50245 0.201258,3.55069 0.121757,3.63475 0.0422568,3.71881 -0.00151689,3.83182 4.30805e-5,3.94898 V 6.64054 C -7.64194e-4,6.69916 0.0097813,6.75735 0.031067,6.81174 c 0.0212857,0.05439 0.0528872,0.1039 0.092968,0.14564 0.04008,0.04175 0.08784,0.07489 0.140504,0.09752 0.052664,0.02262 0.109182,0.03427 0.166269,0.03427 0.057087,0 0.113605,-0.01165 0.16627,-0.03427 C 0.649742,7.03227 0.697502,6.99913 0.737582,6.95738 0.777662,6.91564 0.809264,6.86613 0.830549,6.81174 0.851835,6.75735 0.862381,6.69916 0.861573,6.64054 V 3.94898 C 0.862361,3.88981 0.851577,3.83107 0.82986,3.77625 0.808143,3.72143 0.775934,3.67164 0.73514,3.62983 0.694346,3.58802 0.645798,3.55505 0.592369,3.53285 0.53894,3.51066 0.481717,3.4997 0.424088,3.50062 Z m 14.138812,0 c -0.1142,0.00172 -0.223,0.04991 -0.3026,0.13398 -0.0796,0.08407 -0.1234,0.19715 -0.1219,0.31438 v 2.69156 c -8e-4,0.05862 0.0098,0.11681 0.0311,0.1712 0.0212,0.05439 0.0528,0.1039 0.0929,0.14564 0.0401,0.04175 0.0879,0.07489 0.1405,0.09752 0.0527,0.02262 0.1092,0.03427 0.1663,0.03427 0.0571,0 0.1136,-0.01165 0.1663,-0.03427 C 14.7881,7.03227 14.8359,6.99913 14.876,6.95738 14.916,6.91564 14.9476,6.86613 14.9689,6.81174 14.9902,6.75735 15.0008,6.69916 15,6.64054 V 3.94898 C 15.0007,3.88984 14.99,3.83114 14.9683,3.77635 14.9466,3.72156 14.9144,3.67179 14.8737,3.62999 14.8329,3.58818 14.7844,3.5552 14.731,3.53298 14.6777,3.51076 14.6205,3.49975 14.5629,3.50062 Z M 5.17651,13.1453 h 4.64666 c 0.13183,0 0.23813,0.1021 0.23813,0.229 v 0.1995 c 0,0.127 -0.10629,0.229 -0.23813,0.229 H 5.17651 c -0.13184,0 -0.23768,-0.102 -0.23768,-0.229 v -0.1995 c 0,-0.1269 0.10585,-0.229 0.23768,-0.229 z m 6.75329,2.5003 c -0.071,-0.0012 -0.1413,0.0158 -0.2044,0.0492 -0.0632,0.0335 -0.1173,0.0825 -0.1575,0.1427 -0.0403,0.0602 -0.0654,0.1296 -0.0731,0.2022 -0.0078,0.0726 0.0021,0.146 0.0287,0.2136 l 0.2616,0.6946 H 3.2047 L 3.46635,16.2533 C 3.49332,16.1846 3.50307,16.1101 3.49468,16.0365 3.48629,15.9629 3.46004,15.8927 3.41833,15.8322 3.37663,15.7718 3.32081,15.723 3.25599,15.6905 3.19117,15.658 3.11944,15.6427 3.04736,15.646 2.96287,15.65 2.88139,15.6795 2.8131,15.7307 2.7448,15.7819 2.6927,15.8527 2.66329,15.9341 l -1.677634,4.45 c -0.021346,0.0544 -0.031957,0.1126 -0.031217,0.1712 7.4e-4,0.0586 0.012817,0.1165 0.035529,0.1703 0.022712,0.0537 0.055602,0.1024 0.096772,0.143 0.04116,0.0406 0.08978,0.0724 0.14301,0.0935 0.05324,0.0212 0.11004,0.0313 0.16711,0.0297 C 1.45392,20.9902 1.51011,20.977 1.56216,20.9529 1.6142,20.9288 1.66107,20.8944 1.70004,20.8515 1.739,20.8087 1.76929,20.7583 1.78914,20.7034 L 2.03776,20.0442 H 12.9525 l 0.2486,0.6592 c 0.019,0.056 0.0489,0.1075 0.0877,0.1515 0.0388,0.0439 0.0859,0.0794 0.1384,0.1043 0.0524,0.0249 0.1092,0.0387 0.167,0.0406 0.0577,0.0019 0.1153,-0.0082 0.1692,-0.0296 0.0539,-0.0215 0.103,-0.0538 0.1445,-0.0951 0.0415,-0.0414 0.0744,-0.0908 0.0969,-0.1455 0.0225,-0.0547 0.034,-0.1135 0.0339,-0.1728 -10e-5,-0.0593 -0.0119,-0.1181 -0.0345,-0.1727 l -1.6772,-4.45 C 12.2968,15.8505 12.2427,15.7783 12.1719,15.7268 12.101,15.6753 12.0166,15.647 11.9298,15.6456 Z m -9.05875,2.187 h 9.24765 l 0.5002,1.327 H 2.371 Z"
           fill="#ddd9d3"
           id="path1035" />
      </g>
    </g>
  </g>
</svg>
